<svg width="16" height="12" viewBox="0 0 197 177" fill="none" xmlns="http://www.w3.org/2000/svg">
    <path fill-rule="evenodd" clip-rule="evenodd" d="M0 82.4502V168.5V176.5H8H93.6001H104H197V160.5H102.774C101.507 152.283 99.2651 144.228 96.0835 136.51C90.8569 123.831 83.1963 112.311 73.5391 102.607C63.8818 92.9038 52.417 85.2061 39.7991 79.9546C32.1421 76.7681 24.1516 74.5195 16 73.2441V0H0V72V82.4502ZM16 83.8345V160.5H92.2356C91.0601 153.659 89.1316 146.953 86.4751 140.509C81.7712 129.098 74.8767 118.73 66.1853 109.997C57.4937 101.263 47.1753 94.3354 35.8191 89.6094C29.4297 86.9502 22.782 85.0166 16 83.8345Z" fill="black" />
</svg>