<svg width="677" height="677" viewBox="0 0 677 677" fill="none" xmlns="http://www.w3.org/2000/svg">
    <path id="icon-home" d="M605.446 336.799L605.352 337.651V338.508C605.352 347.441 597.778 354.606 589.404 354.606H557.957H542.39L542.458 370.174L543.145 527.803C543.145 527.813 543.145 527.823 543.145 527.833C543.144 529.734 543.002 531.78 542.748 534.068L542.654 534.92V535.777V551.625C542.654 564.844 531.978 575.5 518.845 575.5H503.121C501.925 575.5 501.548 575.489 501.284 575.465L500.029 575.351L498.772 575.441C498.041 575.493 497.218 575.5 495.751 575.5H463.813H440.227C427.094 575.5 416.418 564.844 416.418 551.625V528V465C416.418 439.041 395.45 418 369.471 418H306.577C280.598 418 259.63 439.041 259.63 465V528V551.625C259.63 564.844 248.954 575.5 235.821 575.5H212.236H180.887C180.016 575.5 179.059 575.442 177.497 575.338L176.335 575.26L175.175 575.357C173.886 575.464 173.352 575.5 172.927 575.5H157.203C144.07 575.5 133.394 564.844 133.394 551.625V441.375C133.394 440.901 133.395 440.635 133.401 440.404C133.403 440.327 133.405 440.277 133.407 440.25L133.493 439.476V438.619V370.106V354.606H117.993H86.4471C77.3748 354.606 70.5 347.821 70.5 338.508C70.5 333.738 71.8472 329.933 75.469 326.168L326.992 106.551L327.392 106.202L327.767 105.826C329.256 104.334 330.65 103.624 332.068 103.198C333.674 102.715 335.643 102.5 338.417 102.5C342.678 102.5 346.612 103.763 349.002 105.691L599.799 326.516L599.812 326.528L599.825 326.539C605.133 331.191 605.708 334.434 605.446 336.799Z" stroke="black" stroke-width="31" />
</svg>