<svg width="173" height="173" viewBox="0 0 173 173" fill="none" xmlns="http://www.w3.org/2000/svg">
<rect x="26.5" y="40.5" width="67" height="89" rx="10.5" stroke="black" stroke-width="9"/>
<rect x="52" y="59" width="16" height="20" rx="4" stroke="black" stroke-width="6"/>
<rect x="52" y="96" width="16" height="16" rx="8" stroke="black" stroke-width="6"/>
<path d="M120.065 116.484C127.234 107.991 131.152 97.2273 131.119 86.1133C131.087 74.9993 127.106 64.2585 119.888 55.8078L113.492 61.2711C119.415 68.2051 122.681 77.0184 122.708 86.1378C122.735 95.2573 119.52 104.089 113.637 111.058L120.065 116.484Z" fill="black"/>
<path d="M130.425 127.669C140.76 116.651 146.627 102.182 146.887 87.0775C147.147 71.9728 141.78 57.3112 131.83 45.9438L125.054 51.8744C133.532 61.5601 138.105 74.0526 137.884 86.9227C137.663 99.7928 132.663 112.121 123.857 121.509L130.425 127.669Z" fill="black"/>
<path d="M107.496 104.707C109.9 102.331 111.812 99.5042 113.124 96.3889C114.436 93.2736 115.121 89.9304 115.14 86.5503C115.16 83.1701 114.514 79.8192 113.238 76.6889C111.963 73.5585 110.083 70.71 107.707 68.3061L101.474 74.4675C103.041 76.0529 104.28 77.9314 105.122 79.9959C105.963 82.0603 106.389 84.2702 106.376 86.4994C106.363 88.7286 105.911 90.9334 105.046 92.9879C104.181 95.0425 102.92 96.9065 101.335 98.4736L107.496 104.707Z" fill="black"/>
</svg>
