<svg width="44" height="36" viewBox="0 0 44 36" fill="none" xmlns="http://www.w3.org/2000/svg">
    <path d="M27.1336 12.1846C27.1336 12.4077 27.1892 12.6176 27.2871 12.8011L27.2867 12.8014C28.1502 14.3858 28.589 16.1701 28.5598 17.978C28.5306 19.786 28.0344 21.5549 27.1202 23.1101L27.121 23.1106C26.9866 23.3161 26.9083 23.5623 26.9083 23.827C26.9083 24.5462 27.4862 25.1293 28.1991 25.1293C28.718 25.1293 29.12 24.8059 29.3705 24.3746C30.4905 22.4453 31.0982 20.2567 31.1343 18.0204C31.1699 15.8145 30.6482 13.6367 29.6195 11.692C29.3114 11.1095 28.9644 10.8823 28.4243 10.8823C27.7114 10.8823 27.1336 11.4653 27.1336 12.1846Z" fill="black" />
    <path fill-rule="evenodd" clip-rule="evenodd" d="M2.60135 6.02253C2.60135 4.76745 3.60972 3.75 4.8536 3.75H22.8716C24.1155 3.75 25.1239 4.76745 25.1239 6.02253V30.0065C25.1239 31.2616 24.1155 32.279 22.8716 32.279H4.8536C3.60972 32.279 2.60135 31.2616 2.60135 30.0065V6.02253ZM11.0906 8.99431C11.0906 8.90742 11.1604 8.83698 11.2465 8.83698H16.496C16.5821 8.83698 16.6519 8.90742 16.6519 8.99431V15.3749C16.6519 15.4618 16.5821 15.5322 16.496 15.5322H11.2465C11.1604 15.5322 11.0906 15.4618 11.0906 15.3749V8.99431ZM13.8626 27.1746C15.6806 27.1746 17.1544 25.6875 17.1544 23.8532C17.1544 22.0188 15.6806 20.5318 13.8626 20.5318C12.0446 20.5318 10.5709 22.0188 10.5709 23.8532C10.5709 25.6875 12.0446 27.1746 13.8626 27.1746Z" fill="black" />
    <path d="M30.7198 8.87194C30.7198 9.24953 30.9576 9.56244 31.1051 9.84646C32.4718 12.4792 33.1696 15.4092 33.1327 18.3734C33.0949 21.3998 32.2925 24.3597 30.8024 26.9761C30.6474 27.2484 30.5119 27.5141 30.5119 27.8389C30.5119 28.6209 31.1402 29.2548 31.9153 29.2548C32.5177 29.2548 32.9584 28.8139 33.2305 28.3338C34.9387 25.3193 35.8585 21.9123 35.9019 18.4292C35.9467 14.8374 35.058 11.2889 33.3235 8.1343C33.0996 7.72693 32.6308 7.45598 32.1232 7.45598C31.3481 7.45598 30.7198 8.08993 30.7198 8.87194Z" fill="black" />
    <path d="M34.5604 5.76906C34.5604 6.04174 34.6324 6.30573 34.7515 6.52222C36.7673 10.1886 37.8003 14.3128 37.7482 18.4874C37.6962 22.662 36.5609 26.7426 34.4547 30.3258C34.3187 30.5572 34.2486 30.8419 34.2486 31.134C34.2486 31.9161 34.8769 32.55 35.6519 32.55C36.1933 32.55 36.6623 32.2312 36.9164 31.799C39.2745 27.7873 40.5455 23.2188 40.6038 18.545C40.662 13.8712 39.5056 9.25382 37.2487 5.14904C36.9937 4.68524 36.5223 4.3531 35.9637 4.3531C35.1887 4.3531 34.5604 4.98704 34.5604 5.76906Z" fill="black" />
</svg>