<svg width="146" height="90" viewBox="0 0 146 90" fill="none" xmlns="http://www.w3.org/2000/svg">
    <path fill-rule="evenodd" clip-rule="evenodd" d="M28 63V77C28 84.1797 33.8203 90 41 90H125C132.18 90 138 84.1797 138 77V72.5H145V63.5H138V58H142C143.105 58 144 57.1046 144 56V54C145.105 54 146 53.1046 146 52V43C146 41.8954 145.105 41 144 41V39C144 37.8954 143.105 37 142 37H138V30.5H145V21.5H138V13C138 5.8203 132.18 0 125 0H41C33.8203 0 28 5.8203 28 13V31H24C22.8954 31 22 31.8954 22 33V42.5H15V40C15 38.8954 14.1046 38 13 38H2C0.895431 38 0 38.8954 0 40V54C0 55.1046 0.89543 56 2 56H13C14.1046 56 15 55.1046 15 54V51.5H22V61C22 62.1046 22.8954 63 24 63H28ZM100.5 9H41C38.7909 9 37 10.7909 37 13V77C37 79.2091 38.7909 81 41 81H100.5V68H56C54.8954 68 54 67.1046 54 66V28C54 26.8954 54.8954 26 56 26H100.5V9ZM109.5 9V81H125C127.209 81 129 79.2091 129 77V13C129 10.7909 127.209 9 125 9H109.5ZM63 35V59H100V35H63Z" fill="white" />
</svg>