<svg width="125" height="98" viewBox="0 0 125 98" fill="none" xmlns="http://www.w3.org/2000/svg">
    <path fill-rule="evenodd" clip-rule="evenodd" d="M34 20C30.134 20 27 23.134 27 27V39C27 42.866 30.134 46 34 46H42C45.866 46 49 42.866 49 39V27C49 23.134 45.866 20 42 20H34ZM42 26H34C33.4477 26 33 26.4477 33 27V39C33 39.5523 33.4477 40 34 40H42C42.5523 40 43 39.5523 43 39V27C43 26.4477 42.5523 26 42 26Z" fill="white" />
    <path fill-rule="evenodd" clip-rule="evenodd" d="M27 68C27 61.9249 31.9249 57 38 57C44.0751 57 49 61.9249 49 68C49 74.0751 44.0751 79 38 79C31.9249 79 27 74.0751 27 68ZM38 73C35.2386 73 33 70.7614 33 68C33 65.2386 35.2386 63 38 63C40.7614 63 43 65.2386 43 68C43 70.7614 40.7614 73 38 73Z" fill="white" />
    <path fill-rule="evenodd" clip-rule="evenodd" d="M15 0C6.71573 0 0 6.71573 0 15V83C0 91.2843 6.71573 98 15 98H61C69.2843 98 76 91.2843 76 83V15C76 6.71573 69.2843 0 61 0H15ZM61 9H15C11.6863 9 9 11.6863 9 15V83C9 86.3137 11.6863 89 15 89H61C64.3137 89 67 86.3137 67 83V15C67 11.6863 64.3137 9 61 9Z" fill="white" />
    <path d="M98.0646 80.4838C105.234 71.9911 109.152 61.2273 109.119 50.1133C109.087 38.9993 105.106 28.2585 97.8875 19.8078L91.4919 25.2711C97.415 32.2051 100.681 41.0184 100.708 50.1378C100.735 59.2573 97.5198 68.0895 91.6372 75.058L98.0646 80.4838Z" fill="white" />
    <path d="M108.425 91.6693C118.76 80.6506 124.627 66.1822 124.887 51.0775C125.147 35.9728 119.78 21.3112 109.83 9.94381L103.054 15.8744C111.532 25.5601 116.105 38.0526 115.884 50.9227C115.663 63.7928 110.663 76.1207 101.857 85.5093L108.425 91.6693Z" fill="white" />
    <path d="M85.496 68.707C87.8999 66.3307 89.8124 63.5042 91.124 60.3889C92.4356 57.2736 93.1208 53.9304 93.1404 50.5503C93.1601 47.1701 92.5137 43.8192 91.2383 40.6889C89.9629 37.5585 88.0834 34.71 85.7072 32.3061L79.4738 38.4675C81.0409 40.0529 82.2804 41.9314 83.1216 43.9959C83.9627 46.0603 84.3889 48.2702 84.376 50.4994C84.3631 52.7286 83.9112 54.9334 83.0462 56.9879C82.1812 59.0425 80.92 60.9065 79.3345 62.4736L85.496 68.707Z" fill="white" />
</svg>