<svg width="1984" height="1587" viewBox="0 0 1984 1587" fill="none" xmlns="http://www.w3.org/2000/svg">
<path d="M933.409 107.866C969.059 123.984 991.999 159.32 991.999 198.375V1388.63C991.999 1427.68 969.059 1463.02 933.409 1479.13C897.759 1495.25 855.909 1488.74 826.769 1462.71L408.579 1091.06H198.4C88.9699 1091.06 0 1002.1 0 892.688V694.312C0 584.896 88.9699 495.938 198.4 495.938H408.579L826.769 124.294C855.909 98.2576 897.759 92.0584 933.409 107.866Z" fill="black"/>
<path d="M1984 793.5C1984 513.915 1855.35 264.397 1654.16 100.737V100.427C1622.23 74.7006 1575.11 79.35 1549.38 111.276C1523.65 143.202 1528.3 190.006 1560.23 216.043C1728.25 352.736 1835.2 560.409 1835.2 793.5C1835.2 1026.59 1728.25 1234.26 1560.23 1370.65C1528.3 1396.68 1523.34 1443.49 1549.38 1475.41C1575.42 1507.34 1622.23 1512.3 1654.16 1486.26C1855.35 1322.91 1984 1073.08 1984 793.5Z" fill="#AFAFAF"/>
<path d="M1654.16 793.658C1654.16 607.372 1568.29 440.922 1434.37 331.816V331.506C1402.44 305.779 1355.32 310.429 1329.59 342.355C1303.86 374.281 1308.51 421.085 1340.44 447.122C1441.19 529.261 1505.36 653.866 1505.36 793.658C1505.36 933.45 1441.19 1058.05 1340.44 1139.88C1308.51 1165.92 1303.55 1212.73 1329.59 1244.65C1355.63 1276.58 1402.44 1281.54 1434.37 1255.5C1568.29 1146.39 1654.16 979.945 1654.16 793.658Z" fill="#AFAFAF"/>
<path d="M1340.44 777.73C1340.44 684.432 1297.35 601.363 1230.7 546.81V546.5C1198.77 520.773 1151.65 525.422 1125.92 557.348C1100.19 589.274 1104.84 636.078 1136.77 662.115C1170.25 689.702 1191.64 731.236 1191.64 777.73C1191.64 824.225 1170.25 865.76 1136.77 893.036C1104.84 919.073 1099.88 965.877 1125.92 997.803C1151.96 1029.73 1198.77 1034.69 1230.7 1008.65C1297.35 954.098 1340.44 871.029 1340.44 777.73Z" fill="#AFAFAF"/>
</svg>
