<svg width="40" height="40" viewBox="0 0 40 40" fill="none" xmlns="http://www.w3.org/2000/svg">
<path d="M33.7825 7.51599C34.3573 6.99541 34.4044 6.10346 33.8448 5.56666C32.171 3.96105 30.2278 2.65629 28.1007 1.71396C25.5448 0.58174 22.7801 -0.00213281 19.9847 5.85337e-06C17.1893 0.00214452 14.4255 0.590247 11.8714 1.72637C9.74564 2.67196 7.80452 3.97969 6.13312 5.58786C5.57433 6.12552 5.62286 7.01739 6.19839 7.5371V7.5371C6.77392 8.0568 7.65805 8.00678 8.22297 7.47557C9.62704 6.15529 11.2457 5.07815 13.0127 4.29213C15.2082 3.31552 17.584 2.80999 19.9868 2.80815C22.3897 2.80632 24.7663 3.30821 26.9633 4.28145C28.7315 5.06477 30.3518 6.13943 31.7578 7.45756C32.3236 7.98791 33.2078 8.03657 33.7825 7.51599V7.51599Z" fill="#4D4D4D"/>
<path d="M28.5102 12.3681C29.0941 11.8562 29.1572 10.9611 28.5843 10.437C27.5973 9.5341 26.4726 8.78972 25.2497 8.23339C23.5992 7.4825 21.8079 7.09138 19.9946 7.08599C18.1814 7.08061 16.3877 7.46109 14.7328 8.20216C13.5067 8.75121 12.3775 9.4889 11.3852 10.3859C10.8091 10.9067 10.8669 11.802 11.4478 12.3174V12.3174C12.0286 12.8329 12.9117 12.7708 13.5036 12.2681C14.2199 11.66 15.0203 11.1546 15.8821 10.7687C17.1729 10.1907 18.5719 9.89388 19.9863 9.89808C21.4006 9.90228 22.7978 10.2074 24.0852 10.793C24.9447 11.1841 25.7421 11.6942 26.4547 12.3066C27.0436 12.8127 27.9263 12.8801 28.5102 12.3681V12.3681Z" fill="#4D4D4D"/>
<circle cx="19.9849" cy="16.9683" r="2.85505" fill="#4D4D4D"/>
</svg>
