<svg width="1135" height="2036" viewBox="0 0 1135 2036" fill="none" xmlns="http://www.w3.org/2000/svg">
<rect width="1135" height="2036" fill="white"/>
<path d="M420 63H863.626C929.9 63 983.626 116.726 983.626 183V1869H420V63Z" fill="#007000"/>
<circle cx="862" cy="187" r="95" fill="#EDED93"/>
<circle cx="862" cy="187" r="45" fill="white"/>
<rect x="603" y="318" width="259" height="1499" fill="#808080" fill-opacity="0.7"/>
<path d="M733 332V1789.5" stroke="black" stroke-opacity="0.2" stroke-width="3"/>
<rect x="144.5" y="376.5" width="369" height="724" fill="white" stroke="black"/>
<circle cx="240" cy="650" r="34" fill="#2C74B3"/>
<circle cx="240" cy="532" r="34" fill="#CCCCCC"/>
<circle cx="240" cy="768" r="34" fill="#DC0000"/>
<path d="M307.541 521.182V543H304.899V521.182H307.541ZM331.247 532.091C331.247 534.392 330.832 536.381 330.001 538.057C329.17 539.733 328.03 541.026 326.581 541.935C325.132 542.844 323.478 543.298 321.617 543.298C319.756 543.298 318.101 542.844 316.652 541.935C315.203 541.026 314.063 539.733 313.233 538.057C312.402 536.381 311.986 534.392 311.986 532.091C311.986 529.79 312.402 527.801 313.233 526.125C314.063 524.449 315.203 523.156 316.652 522.247C318.101 521.338 319.756 520.884 321.617 520.884C323.478 520.884 325.132 521.338 326.581 522.247C328.03 523.156 329.17 524.449 330.001 526.125C330.832 527.801 331.247 529.79 331.247 532.091ZM328.691 532.091C328.691 530.202 328.375 528.607 327.742 527.308C327.117 526.008 326.269 525.024 325.196 524.357C324.131 523.689 322.938 523.355 321.617 523.355C320.296 523.355 319.099 523.689 318.027 524.357C316.961 525.024 316.112 526.008 315.48 527.308C314.855 528.607 314.543 530.202 314.543 532.091C314.543 533.98 314.855 535.575 315.48 536.874C316.112 538.174 316.961 539.158 318.027 539.825C319.099 540.493 320.296 540.827 321.617 540.827C322.938 540.827 324.131 540.493 325.196 539.825C326.269 539.158 327.117 538.174 327.742 536.874C328.375 535.575 328.691 533.98 328.691 532.091ZM361.429 521.182V543H358.872L346.983 525.869H346.769V543H344.127V521.182H346.684L358.616 538.355H358.829V521.182H361.429ZM376.687 536.31V526.636H379.201V543H376.687V540.23H376.516C376.133 541.061 375.536 541.768 374.727 542.35C373.917 542.925 372.894 543.213 371.658 543.213C370.636 543.213 369.727 542.989 368.931 542.542C368.136 542.087 367.511 541.406 367.056 540.496C366.602 539.58 366.374 538.426 366.374 537.034V526.636H368.889V536.864C368.889 538.057 369.222 539.009 369.89 539.719C370.565 540.429 371.424 540.784 372.468 540.784C373.093 540.784 373.729 540.624 374.375 540.305C375.028 539.985 375.575 539.495 376.016 538.835C376.463 538.174 376.687 537.332 376.687 536.31ZM386.32 521.182V543H383.806V521.182H386.32ZM393.439 521.182V543H390.925V521.182H393.439Z" fill="black"/>
<path d="M308.378 639.182V661H305.736V639.182H308.378ZM332.084 650.091C332.084 652.392 331.669 654.381 330.838 656.057C330.007 657.733 328.867 659.026 327.418 659.935C325.969 660.844 324.314 661.298 322.454 661.298C320.593 661.298 318.938 660.844 317.489 659.935C316.04 659.026 314.9 657.733 314.069 656.057C313.238 654.381 312.823 652.392 312.823 650.091C312.823 647.79 313.238 645.801 314.069 644.125C314.9 642.449 316.04 641.156 317.489 640.247C318.938 639.338 320.593 638.884 322.454 638.884C324.314 638.884 325.969 639.338 327.418 640.247C328.867 641.156 330.007 642.449 330.838 644.125C331.669 645.801 332.084 647.79 332.084 650.091ZM329.528 650.091C329.528 648.202 329.211 646.607 328.579 645.308C327.954 644.008 327.106 643.024 326.033 642.357C324.968 641.689 323.775 641.355 322.454 641.355C321.133 641.355 319.936 641.689 318.863 642.357C317.798 643.024 316.949 644.008 316.317 645.308C315.692 646.607 315.38 648.202 315.38 650.091C315.38 651.98 315.692 653.575 316.317 654.874C316.949 656.174 317.798 657.158 318.863 657.825C319.936 658.493 321.133 658.827 322.454 658.827C323.775 658.827 324.968 658.493 326.033 657.825C327.106 657.158 327.954 656.174 328.579 654.874C329.211 653.575 329.528 651.98 329.528 650.091ZM356.896 644.636C356.768 643.557 356.25 642.719 355.341 642.122C354.432 641.526 353.317 641.227 351.996 641.227C351.03 641.227 350.184 641.384 349.46 641.696C348.743 642.009 348.182 642.438 347.777 642.985C347.379 643.532 347.18 644.153 347.18 644.849C347.18 645.432 347.319 645.933 347.596 646.352C347.88 646.763 348.242 647.108 348.682 647.385C349.123 647.655 349.584 647.879 350.067 648.056C350.55 648.227 350.994 648.365 351.399 648.472L353.615 649.068C354.183 649.217 354.815 649.423 355.511 649.686C356.214 649.949 356.885 650.308 357.525 650.762C358.171 651.21 358.704 651.785 359.123 652.488C359.542 653.191 359.751 654.054 359.751 655.077C359.751 656.256 359.442 657.321 358.824 658.273C358.214 659.224 357.319 659.981 356.14 660.542C354.968 661.103 353.544 661.384 351.868 661.384C350.305 661.384 348.952 661.131 347.809 660.627C346.672 660.123 345.778 659.42 345.124 658.518C344.478 657.616 344.112 656.568 344.027 655.375H346.754C346.825 656.199 347.102 656.881 347.585 657.42C348.075 657.953 348.693 658.351 349.439 658.614C350.192 658.869 351.001 658.997 351.868 658.997C352.876 658.997 353.782 658.834 354.584 658.507C355.387 658.173 356.023 657.712 356.491 657.122C356.96 656.526 357.194 655.83 357.194 655.034C357.194 654.31 356.992 653.72 356.587 653.266C356.182 652.811 355.65 652.442 354.989 652.158C354.329 651.874 353.615 651.625 352.848 651.412L350.163 650.645C348.459 650.155 347.109 649.455 346.115 648.546C345.121 647.637 344.623 646.447 344.623 644.977C344.623 643.756 344.954 642.69 345.614 641.781C346.282 640.865 347.177 640.155 348.299 639.651C349.428 639.139 350.689 638.884 352.081 638.884C353.487 638.884 354.737 639.136 355.831 639.64C356.925 640.137 357.791 640.819 358.43 641.685C359.077 642.552 359.417 643.536 359.453 644.636H356.896ZM370.615 661.341C369.038 661.341 367.678 660.993 366.535 660.297C365.398 659.594 364.521 658.614 363.903 657.357C363.293 656.092 362.987 654.622 362.987 652.946C362.987 651.27 363.293 649.793 363.903 648.514C364.521 647.229 365.381 646.227 366.482 645.51C367.589 644.786 368.882 644.423 370.359 644.423C371.212 644.423 372.053 644.565 372.884 644.849C373.715 645.134 374.472 645.595 375.153 646.234C375.835 646.866 376.379 647.705 376.783 648.749C377.188 649.793 377.391 651.078 377.391 652.605V653.67H364.777V651.497H374.834C374.834 650.574 374.649 649.75 374.28 649.026C373.918 648.301 373.399 647.729 372.724 647.31C372.057 646.891 371.268 646.682 370.359 646.682C369.358 646.682 368.491 646.93 367.76 647.428C367.036 647.918 366.478 648.557 366.087 649.345C365.697 650.134 365.501 650.979 365.501 651.881V653.33C365.501 654.565 365.714 655.613 366.141 656.472C366.574 657.325 367.174 657.974 367.941 658.422C368.708 658.862 369.599 659.082 370.615 659.082C371.276 659.082 371.872 658.99 372.405 658.805C372.945 658.614 373.41 658.33 373.8 657.953C374.191 657.57 374.493 657.094 374.706 656.526L377.135 657.207C376.879 658.031 376.45 658.756 375.846 659.381C375.242 659.999 374.496 660.482 373.609 660.83C372.721 661.17 371.723 661.341 370.615 661.341ZM388.332 644.636V646.767H379.852V644.636H388.332ZM382.323 640.716H384.837V656.312C384.837 657.023 384.94 657.555 385.146 657.911C385.359 658.259 385.629 658.493 385.956 658.614C386.29 658.727 386.641 658.784 387.011 658.784C387.288 658.784 387.515 658.77 387.692 658.741C387.87 658.706 388.012 658.678 388.119 658.656L388.63 660.915C388.46 660.979 388.222 661.043 387.916 661.107C387.611 661.178 387.224 661.213 386.755 661.213C386.045 661.213 385.349 661.06 384.667 660.755C383.992 660.45 383.431 659.984 382.984 659.359C382.543 658.734 382.323 657.946 382.323 656.994V640.716ZM399.827 638.159L392.795 664.281H390.494L397.526 638.159H399.827ZM421.557 650.091C421.557 652.392 421.142 654.381 420.311 656.057C419.48 657.733 418.34 659.026 416.891 659.935C415.442 660.844 413.787 661.298 411.926 661.298C410.066 661.298 408.411 660.844 406.962 659.935C405.513 659.026 404.373 657.733 403.542 656.057C402.711 654.381 402.296 652.392 402.296 650.091C402.296 647.79 402.711 645.801 403.542 644.125C404.373 642.449 405.513 641.156 406.962 640.247C408.411 639.338 410.066 638.884 411.926 638.884C413.787 638.884 415.442 639.338 416.891 640.247C418.34 641.156 419.48 642.449 420.311 644.125C421.142 645.801 421.557 647.79 421.557 650.091ZM419 650.091C419 648.202 418.684 646.607 418.052 645.308C417.427 644.008 416.578 643.024 415.506 642.357C414.441 641.689 413.247 641.355 411.926 641.355C410.605 641.355 409.409 641.689 408.336 642.357C407.271 643.024 406.422 644.008 405.79 645.308C405.165 646.607 404.852 648.202 404.852 650.091C404.852 651.98 405.165 653.575 405.79 654.874C406.422 656.174 407.271 657.158 408.336 657.825C409.409 658.493 410.605 658.827 411.926 658.827C413.247 658.827 414.441 658.493 415.506 657.825C416.578 657.158 417.427 656.174 418.052 654.874C418.684 653.575 419 651.98 419 650.091ZM428.173 651.156V661H425.659V644.636H428.088V647.193H428.301C428.684 646.362 429.267 645.695 430.048 645.19C430.829 644.679 431.838 644.423 433.073 644.423C434.181 644.423 435.151 644.651 435.982 645.105C436.813 645.553 437.459 646.234 437.921 647.151C438.382 648.06 438.613 649.21 438.613 650.602V661H436.099V650.773C436.099 649.487 435.765 648.486 435.097 647.768C434.43 647.044 433.514 646.682 432.349 646.682C431.546 646.682 430.829 646.856 430.197 647.204C429.572 647.552 429.078 648.06 428.716 648.727C428.354 649.395 428.173 650.205 428.173 651.156Z" fill="black"/>
<path d="M309.333 757.182V779H306.691V757.182H309.333ZM333.039 768.091C333.039 770.392 332.624 772.381 331.793 774.057C330.962 775.733 329.822 777.026 328.373 777.935C326.924 778.844 325.27 779.298 323.409 779.298C321.548 779.298 319.893 778.844 318.444 777.935C316.995 777.026 315.855 775.733 315.025 774.057C314.194 772.381 313.778 770.392 313.778 768.091C313.778 765.79 314.194 763.801 315.025 762.125C315.855 760.449 316.995 759.156 318.444 758.247C319.893 757.338 321.548 756.884 323.409 756.884C325.27 756.884 326.924 757.338 328.373 758.247C329.822 759.156 330.962 760.449 331.793 762.125C332.624 763.801 333.039 765.79 333.039 768.091ZM330.483 768.091C330.483 766.202 330.167 764.607 329.534 763.308C328.909 762.008 328.061 761.024 326.988 760.357C325.923 759.689 324.73 759.355 323.409 759.355C322.088 759.355 320.891 759.689 319.819 760.357C318.753 761.024 317.904 762.008 317.272 763.308C316.647 764.607 316.335 766.202 316.335 768.091C316.335 769.98 316.647 771.575 317.272 772.874C317.904 774.174 318.753 775.158 319.819 775.825C320.891 776.493 322.088 776.827 323.409 776.827C324.73 776.827 325.923 776.493 326.988 775.825C328.061 775.158 328.909 774.174 329.534 772.874C330.167 771.575 330.483 769.98 330.483 768.091ZM345.919 779V757.182H353.292C354.996 757.182 356.395 757.473 357.489 758.055C358.583 758.631 359.392 759.423 359.918 760.431C360.444 761.44 360.706 762.587 360.706 763.872C360.706 765.158 360.444 766.298 359.918 767.292C359.392 768.286 358.586 769.067 357.5 769.636C356.413 770.197 355.025 770.477 353.334 770.477H347.368V768.091H353.249C354.414 768.091 355.351 767.92 356.061 767.58C356.779 767.239 357.297 766.756 357.617 766.131C357.944 765.499 358.107 764.746 358.107 763.872C358.107 762.999 357.944 762.235 357.617 761.582C357.29 760.928 356.768 760.424 356.051 760.069C355.333 759.707 354.385 759.526 353.206 759.526H348.561V779H345.919ZM356.189 769.199L361.559 779H358.49L353.206 769.199H356.189ZM371.453 779.341C369.876 779.341 368.516 778.993 367.373 778.297C366.236 777.594 365.359 776.614 364.741 775.357C364.131 774.092 363.825 772.622 363.825 770.946C363.825 769.27 364.131 767.793 364.741 766.514C365.359 765.229 366.219 764.227 367.319 763.51C368.427 762.786 369.72 762.423 371.197 762.423C372.05 762.423 372.891 762.565 373.722 762.849C374.553 763.134 375.309 763.595 375.991 764.234C376.673 764.866 377.216 765.705 377.621 766.749C378.026 767.793 378.229 769.078 378.229 770.605V771.67H365.615V769.497H375.672C375.672 768.574 375.487 767.75 375.118 767.026C374.756 766.301 374.237 765.729 373.562 765.31C372.895 764.891 372.106 764.682 371.197 764.682C370.196 764.682 369.329 764.93 368.598 765.428C367.873 765.918 367.316 766.557 366.925 767.345C366.535 768.134 366.339 768.979 366.339 769.881V771.33C366.339 772.565 366.552 773.613 366.979 774.472C367.412 775.325 368.012 775.974 368.779 776.422C369.546 776.862 370.437 777.082 371.453 777.082C372.113 777.082 372.71 776.99 373.243 776.805C373.782 776.614 374.248 776.33 374.638 775.953C375.029 775.57 375.331 775.094 375.544 774.526L377.973 775.207C377.717 776.031 377.287 776.756 376.684 777.381C376.08 777.999 375.334 778.482 374.447 778.83C373.559 779.17 372.561 779.341 371.453 779.341ZM393.644 766.301L391.385 766.94C391.243 766.564 391.034 766.198 390.757 765.843C390.487 765.481 390.118 765.183 389.649 764.948C389.18 764.714 388.58 764.597 387.849 764.597C386.847 764.597 386.013 764.827 385.345 765.289C384.684 765.744 384.354 766.322 384.354 767.026C384.354 767.651 384.581 768.144 385.036 768.506C385.491 768.869 386.201 769.17 387.167 769.412L389.596 770.009C391.059 770.364 392.149 770.907 392.866 771.638C393.584 772.363 393.942 773.297 393.942 774.44C393.942 775.378 393.672 776.216 393.133 776.955C392.6 777.693 391.854 778.276 390.895 778.702C389.937 779.128 388.822 779.341 387.55 779.341C385.881 779.341 384.5 778.979 383.406 778.254C382.312 777.53 381.62 776.472 381.329 775.08L383.715 774.483C383.942 775.364 384.372 776.024 385.004 776.464C385.643 776.905 386.478 777.125 387.508 777.125C388.68 777.125 389.61 776.876 390.299 776.379C390.995 775.875 391.343 775.271 391.343 774.568C391.343 774 391.144 773.524 390.746 773.141C390.349 772.75 389.738 772.459 388.914 772.267L386.187 771.628C384.688 771.273 383.587 770.722 382.884 769.977C382.188 769.224 381.84 768.283 381.84 767.153C381.84 766.23 382.099 765.413 382.618 764.703C383.143 763.993 383.857 763.435 384.759 763.031C385.668 762.626 386.698 762.423 387.849 762.423C389.468 762.423 390.739 762.778 391.662 763.489C392.593 764.199 393.253 765.136 393.644 766.301ZM404.588 779.341C403.011 779.341 401.651 778.993 400.507 778.297C399.371 777.594 398.494 776.614 397.876 775.357C397.265 774.092 396.96 772.622 396.96 770.946C396.96 769.27 397.265 767.793 397.876 766.514C398.494 765.229 399.353 764.227 400.454 763.51C401.562 762.786 402.855 762.423 404.332 762.423C405.184 762.423 406.026 762.565 406.857 762.849C407.688 763.134 408.444 763.595 409.126 764.234C409.808 764.866 410.351 765.705 410.756 766.749C411.161 767.793 411.363 769.078 411.363 770.605V771.67H398.75V769.497H408.806C408.806 768.574 408.622 767.75 408.252 767.026C407.89 766.301 407.372 765.729 406.697 765.31C406.029 764.891 405.241 764.682 404.332 764.682C403.331 764.682 402.464 764.93 401.733 765.428C401.008 765.918 400.451 766.557 400.06 767.345C399.669 768.134 399.474 768.979 399.474 769.881V771.33C399.474 772.565 399.687 773.613 400.113 774.472C400.547 775.325 401.147 775.974 401.914 776.422C402.681 776.862 403.572 777.082 404.588 777.082C405.248 777.082 405.845 776.99 406.377 776.805C406.917 776.614 407.382 776.33 407.773 775.953C408.164 775.57 408.466 775.094 408.679 774.526L411.108 775.207C410.852 776.031 410.422 776.756 409.819 777.381C409.215 777.999 408.469 778.482 407.581 778.83C406.694 779.17 405.696 779.341 404.588 779.341ZM422.304 762.636V764.767H413.824V762.636H422.304ZM416.296 758.716H418.81V774.312C418.81 775.023 418.913 775.555 419.119 775.911C419.332 776.259 419.602 776.493 419.929 776.614C420.262 776.727 420.614 776.784 420.983 776.784C421.26 776.784 421.488 776.77 421.665 776.741C421.843 776.706 421.985 776.678 422.091 776.656L422.603 778.915C422.432 778.979 422.194 779.043 421.889 779.107C421.583 779.178 421.196 779.213 420.728 779.213C420.017 779.213 419.321 779.06 418.64 778.755C417.965 778.45 417.404 777.984 416.956 777.359C416.516 776.734 416.296 775.946 416.296 774.994V758.716ZM433.799 756.159L426.768 782.281H424.467L431.498 756.159H433.799ZM455.53 768.091C455.53 770.392 455.114 772.381 454.283 774.057C453.452 775.733 452.312 777.026 450.863 777.935C449.415 778.844 447.76 779.298 445.899 779.298C444.038 779.298 442.383 778.844 440.934 777.935C439.486 777.026 438.346 775.733 437.515 774.057C436.684 772.381 436.268 770.392 436.268 768.091C436.268 765.79 436.684 763.801 437.515 762.125C438.346 760.449 439.486 759.156 440.934 758.247C442.383 757.338 444.038 756.884 445.899 756.884C447.76 756.884 449.415 757.338 450.863 758.247C452.312 759.156 453.452 760.449 454.283 762.125C455.114 763.801 455.53 765.79 455.53 768.091ZM452.973 768.091C452.973 766.202 452.657 764.607 452.025 763.308C451.4 762.008 450.551 761.024 449.479 760.357C448.413 759.689 447.22 759.355 445.899 759.355C444.578 759.355 443.381 759.689 442.309 760.357C441.243 761.024 440.395 762.008 439.763 763.308C439.138 764.607 438.825 766.202 438.825 768.091C438.825 769.98 439.138 771.575 439.763 772.874C440.395 774.174 441.243 775.158 442.309 775.825C443.381 776.493 444.578 776.827 445.899 776.827C447.22 776.827 448.413 776.493 449.479 775.825C450.551 775.158 451.4 774.174 452.025 772.874C452.657 771.575 452.973 769.98 452.973 768.091ZM466.918 762.636V764.767H458.097V762.636H466.918ZM460.739 779V760.378C460.739 759.44 460.959 758.659 461.4 758.034C461.84 757.409 462.412 756.94 463.115 756.628C463.818 756.315 464.56 756.159 465.341 756.159C465.959 756.159 466.464 756.209 466.854 756.308C467.245 756.408 467.536 756.5 467.728 756.585L467.003 758.759C466.876 758.716 466.698 758.663 466.471 758.599C466.251 758.535 465.959 758.503 465.597 758.503C464.766 758.503 464.166 758.712 463.797 759.131C463.434 759.55 463.253 760.165 463.253 760.974V779H460.739ZM477.729 762.636V764.767H468.908V762.636H477.729ZM471.55 779V760.378C471.55 759.44 471.77 758.659 472.21 758.034C472.651 757.409 473.222 756.94 473.925 756.628C474.629 756.315 475.371 756.159 476.152 756.159C476.77 756.159 477.274 756.209 477.665 756.308C478.055 756.408 478.347 756.5 478.538 756.585L477.814 758.759C477.686 758.716 477.509 758.663 477.281 758.599C477.061 758.535 476.77 758.503 476.408 758.503C475.577 758.503 474.977 758.712 474.607 759.131C474.245 759.55 474.064 760.165 474.064 760.974V779H471.55Z" fill="black"/>
<path d="M276.03 401.457C275.945 400.597 275.579 399.93 274.933 399.454C274.286 398.978 273.409 398.74 272.301 398.74C271.549 398.74 270.913 398.847 270.394 399.06C269.876 399.266 269.478 399.553 269.201 399.923C268.931 400.292 268.796 400.711 268.796 401.18C268.782 401.57 268.864 401.911 269.041 402.202C269.226 402.494 269.478 402.746 269.798 402.959C270.117 403.165 270.487 403.346 270.906 403.502C271.325 403.651 271.772 403.779 272.248 403.886L274.208 404.354C275.16 404.567 276.034 404.852 276.829 405.207C277.625 405.562 278.313 405.999 278.896 406.517C279.478 407.036 279.929 407.646 280.249 408.349C280.576 409.053 280.742 409.859 280.75 410.768C280.742 412.103 280.402 413.261 279.727 414.241C279.059 415.214 278.093 415.97 276.829 416.51C275.572 417.043 274.056 417.309 272.28 417.309C270.519 417.309 268.985 417.039 267.678 416.499C266.378 415.96 265.362 415.161 264.631 414.102C263.907 413.037 263.527 411.719 263.491 410.15H267.955C268.005 410.881 268.214 411.492 268.583 411.982C268.96 412.465 269.46 412.831 270.085 413.08C270.718 413.321 271.431 413.442 272.227 413.442C273.008 413.442 273.686 413.328 274.262 413.101C274.844 412.874 275.295 412.558 275.615 412.153C275.934 411.748 276.094 411.283 276.094 410.757C276.094 410.267 275.948 409.855 275.657 409.521C275.373 409.187 274.954 408.903 274.4 408.669C273.853 408.435 273.182 408.222 272.387 408.03L270.011 407.433C268.171 406.986 266.719 406.286 265.654 405.335C264.588 404.383 264.059 403.101 264.066 401.489C264.059 400.168 264.411 399.013 265.121 398.026C265.838 397.039 266.822 396.268 268.072 395.714C269.322 395.161 270.742 394.884 272.333 394.884C273.953 394.884 275.366 395.161 276.573 395.714C277.788 396.268 278.733 397.039 279.407 398.026C280.082 399.013 280.43 400.157 280.451 401.457H276.03ZM292.471 400.636V404.045H282.617V400.636H292.471ZM284.854 396.716H289.392V411.972C289.392 412.391 289.456 412.717 289.584 412.952C289.712 413.179 289.889 413.339 290.117 413.431C290.351 413.523 290.621 413.57 290.926 413.57C291.139 413.57 291.352 413.552 291.565 413.516C291.778 413.474 291.942 413.442 292.055 413.42L292.769 416.798C292.542 416.869 292.222 416.95 291.81 417.043C291.399 417.142 290.898 417.202 290.308 417.224C289.215 417.266 288.256 417.121 287.432 416.787C286.615 416.453 285.979 415.935 285.525 415.232C285.07 414.528 284.847 413.641 284.854 412.568V396.716ZM300.093 417.309C299.049 417.309 298.119 417.128 297.302 416.766C296.486 416.396 295.839 415.853 295.363 415.136C294.895 414.411 294.66 413.509 294.66 412.43C294.66 411.521 294.827 410.757 295.161 410.139C295.495 409.521 295.949 409.024 296.525 408.648C297.1 408.271 297.753 407.987 298.485 407.795C299.223 407.604 299.998 407.469 300.807 407.391C301.759 407.291 302.526 407.199 303.108 407.114C303.691 407.021 304.113 406.886 304.376 406.709C304.639 406.531 304.77 406.268 304.77 405.92V405.857C304.77 405.182 304.557 404.66 304.131 404.29C303.712 403.921 303.116 403.737 302.341 403.737C301.525 403.737 300.875 403.918 300.392 404.28C299.909 404.635 299.589 405.082 299.433 405.622L295.236 405.281C295.449 404.287 295.868 403.428 296.493 402.703C297.118 401.972 297.924 401.411 298.911 401.02C299.905 400.622 301.056 400.423 302.363 400.423C303.272 400.423 304.142 400.53 304.973 400.743C305.811 400.956 306.553 401.286 307.199 401.734C307.853 402.181 308.368 402.756 308.744 403.46C309.12 404.156 309.309 404.99 309.309 405.963V417H305.005V414.731H304.877C304.614 415.242 304.263 415.693 303.822 416.084C303.382 416.467 302.853 416.769 302.235 416.989C301.617 417.202 300.903 417.309 300.093 417.309ZM301.393 414.177C302.061 414.177 302.65 414.045 303.162 413.783C303.673 413.513 304.074 413.151 304.366 412.696C304.657 412.241 304.802 411.727 304.802 411.151V409.415C304.66 409.507 304.465 409.592 304.216 409.67C303.975 409.741 303.701 409.809 303.396 409.873C303.091 409.93 302.785 409.983 302.48 410.033C302.174 410.075 301.897 410.114 301.649 410.15C301.116 410.228 300.651 410.352 300.253 410.523C299.856 410.693 299.547 410.924 299.326 411.215C299.106 411.499 298.996 411.854 298.996 412.281C298.996 412.898 299.22 413.371 299.667 413.697C300.122 414.017 300.697 414.177 301.393 414.177ZM321.533 400.636V404.045H311.679V400.636H321.533ZM313.916 396.716H318.455V411.972C318.455 412.391 318.519 412.717 318.646 412.952C318.774 413.179 318.952 413.339 319.179 413.431C319.413 413.523 319.683 413.57 319.989 413.57C320.202 413.57 320.415 413.552 320.628 413.516C320.841 413.474 321.004 413.442 321.118 413.42L321.832 416.798C321.604 416.869 321.285 416.95 320.873 417.043C320.461 417.142 319.96 417.202 319.371 417.224C318.277 417.266 317.318 417.121 316.494 416.787C315.678 416.453 315.042 415.935 314.587 415.232C314.133 414.528 313.909 413.641 313.916 412.568V396.716ZM334.983 410.033V400.636H339.522V417H335.165V414.028H334.994C334.625 414.987 334.01 415.757 333.151 416.339C332.299 416.922 331.258 417.213 330.03 417.213C328.936 417.213 327.973 416.964 327.142 416.467C326.312 415.97 325.662 415.263 325.193 414.347C324.731 413.431 324.497 412.334 324.49 411.055V400.636H329.028V410.246C329.035 411.212 329.294 411.975 329.806 412.536C330.317 413.097 331.003 413.378 331.862 413.378C332.409 413.378 332.92 413.254 333.396 413.005C333.872 412.749 334.255 412.373 334.547 411.876C334.845 411.379 334.991 410.764 334.983 410.033ZM356.767 405.303L352.612 405.558C352.541 405.203 352.388 404.884 352.154 404.599C351.92 404.308 351.611 404.077 351.227 403.907C350.851 403.729 350.4 403.641 349.874 403.641C349.171 403.641 348.578 403.79 348.095 404.088C347.612 404.379 347.371 404.77 347.371 405.26C347.371 405.651 347.527 405.981 347.839 406.251C348.152 406.521 348.688 406.737 349.448 406.901L352.41 407.497C354.001 407.824 355.187 408.349 355.968 409.074C356.749 409.798 357.14 410.75 357.14 411.929C357.14 413.001 356.824 413.942 356.192 414.752C355.567 415.562 354.707 416.194 353.614 416.648C352.527 417.096 351.273 417.32 349.853 417.32C347.687 417.32 345.961 416.869 344.675 415.967C343.397 415.058 342.648 413.822 342.427 412.259L346.891 412.025C347.026 412.685 347.353 413.19 347.871 413.538C348.39 413.879 349.054 414.049 349.864 414.049C350.659 414.049 351.298 413.896 351.781 413.591C352.271 413.278 352.52 412.877 352.527 412.387C352.52 411.975 352.346 411.638 352.005 411.375C351.664 411.105 351.138 410.899 350.428 410.757L347.594 410.192C345.996 409.873 344.807 409.319 344.025 408.531C343.251 407.742 342.864 406.737 342.864 405.516C342.864 404.464 343.148 403.559 343.717 402.799C344.292 402.039 345.098 401.453 346.135 401.041C347.179 400.629 348.4 400.423 349.8 400.423C351.866 400.423 353.493 400.86 354.679 401.734C355.872 402.607 356.568 403.797 356.767 405.303ZM366.941 417V400.636H371.479V417H366.941ZM369.221 398.527C368.546 398.527 367.967 398.303 367.484 397.856C367.008 397.401 366.771 396.858 366.771 396.226C366.771 395.601 367.008 395.065 367.484 394.617C367.967 394.163 368.546 393.935 369.221 393.935C369.896 393.935 370.471 394.163 370.947 394.617C371.43 395.065 371.671 395.601 371.671 396.226C371.671 396.858 371.43 397.401 370.947 397.856C370.471 398.303 369.896 398.527 369.221 398.527ZM382.508 417.32C380.853 417.32 379.422 416.968 378.215 416.265C377.015 415.555 376.088 414.567 375.434 413.303C374.781 412.032 374.454 410.558 374.454 408.882C374.454 407.192 374.781 405.714 375.434 404.45C376.088 403.179 377.015 402.192 378.215 401.489C379.422 400.778 380.853 400.423 382.508 400.423C384.163 400.423 385.591 400.778 386.791 401.489C387.998 402.192 388.929 403.179 389.582 404.45C390.236 405.714 390.562 407.192 390.562 408.882C390.562 410.558 390.236 412.032 389.582 413.303C388.929 414.567 387.998 415.555 386.791 416.265C385.591 416.968 384.163 417.32 382.508 417.32ZM382.53 413.804C383.282 413.804 383.911 413.591 384.415 413.165C384.919 412.732 385.299 412.142 385.555 411.396C385.818 410.651 385.949 409.802 385.949 408.85C385.949 407.898 385.818 407.05 385.555 406.304C385.299 405.558 384.919 404.969 384.415 404.536C383.911 404.102 383.282 403.886 382.53 403.886C381.77 403.886 381.13 404.102 380.612 404.536C380.101 404.969 379.714 405.558 379.451 406.304C379.195 407.05 379.067 407.898 379.067 408.85C379.067 409.802 379.195 410.651 379.451 411.396C379.714 412.142 380.101 412.732 380.612 413.165C381.13 413.591 381.77 413.804 382.53 413.804Z" fill="black"/>
<circle cx="661" cy="366" r="34" fill="#F3CBCB"/>
<path d="M659.996 377.479C658.164 377.472 656.587 377.021 655.266 376.126C653.952 375.232 652.94 373.935 652.23 372.238C651.527 370.54 651.179 368.499 651.186 366.112C651.186 363.733 651.537 361.705 652.24 360.029C652.951 358.353 653.963 357.078 655.277 356.205C656.598 355.324 658.171 354.884 659.996 354.884C661.821 354.884 663.391 355.324 664.705 356.205C666.026 357.085 667.041 358.364 667.752 360.04C668.462 361.709 668.813 363.733 668.806 366.112C668.806 368.506 668.451 370.551 667.741 372.249C667.038 373.946 666.029 375.242 664.715 376.137C663.402 377.032 661.828 377.479 659.996 377.479ZM659.996 373.655C661.246 373.655 662.244 373.026 662.99 371.769C663.735 370.512 664.105 368.626 664.098 366.112C664.098 364.457 663.927 363.08 663.586 361.979C663.252 360.878 662.777 360.05 662.159 359.496C661.548 358.942 660.827 358.665 659.996 358.665C658.753 358.665 657.759 359.287 657.013 360.53C656.267 361.773 655.891 363.634 655.884 366.112C655.884 367.788 656.051 369.188 656.384 370.31C656.725 371.425 657.205 372.263 657.823 372.824C658.441 373.378 659.165 373.655 659.996 373.655Z" fill="black"/>
<circle cx="661" cy="440" r="34" fill="#F3CBCB"/>
<path d="M664.422 429.182V451H659.809V433.56H659.681L654.685 436.692V432.602L660.086 429.182H664.422Z" fill="black"/>
<circle cx="661" cy="514" r="34" fill="#F3CBCB"/>
<path d="M653.32 525V521.676L661.087 514.485C661.747 513.846 662.301 513.271 662.748 512.759C663.203 512.248 663.547 511.747 663.782 511.257C664.016 510.76 664.133 510.224 664.133 509.648C664.133 509.009 663.988 508.459 663.697 507.997C663.405 507.528 663.008 507.17 662.503 506.921C661.999 506.665 661.427 506.538 660.788 506.538C660.121 506.538 659.538 506.673 659.041 506.942C658.544 507.212 658.16 507.599 657.891 508.104C657.621 508.608 657.486 509.208 657.486 509.904H653.107C653.107 508.477 653.43 507.237 654.077 506.186C654.723 505.135 655.628 504.322 656.793 503.746C657.958 503.171 659.3 502.884 660.82 502.884C662.383 502.884 663.743 503.161 664.9 503.714C666.065 504.261 666.971 505.021 667.617 505.994C668.263 506.967 668.587 508.082 668.587 509.339C668.587 510.163 668.423 510.977 668.097 511.779C667.777 512.582 667.205 513.473 666.381 514.453C665.557 515.426 664.396 516.594 662.898 517.958L659.712 521.08V521.229H668.874V525H653.32Z" fill="black"/>
<circle cx="661" cy="588" r="34" fill="#F3CBCB"/>
<path d="M660.945 599.298C659.354 599.298 657.938 599.025 656.695 598.478C655.459 597.924 654.482 597.164 653.765 596.198C653.055 595.225 652.689 594.103 652.668 592.832H657.313C657.341 593.364 657.515 593.833 657.835 594.238C658.161 594.636 658.595 594.945 659.134 595.165C659.674 595.385 660.281 595.495 660.956 595.495C661.659 595.495 662.281 595.371 662.82 595.122C663.36 594.874 663.783 594.529 664.088 594.089C664.394 593.648 664.546 593.141 664.546 592.565C664.546 591.983 664.383 591.468 664.056 591.021C663.737 590.566 663.275 590.211 662.671 589.955C662.075 589.7 661.364 589.572 660.541 589.572H658.506V586.184H660.541C661.237 586.184 661.851 586.063 662.384 585.822C662.923 585.58 663.342 585.246 663.641 584.82C663.939 584.387 664.088 583.883 664.088 583.308C664.088 582.761 663.957 582.281 663.694 581.869C663.438 581.45 663.076 581.124 662.607 580.889C662.146 580.655 661.606 580.538 660.988 580.538C660.363 580.538 659.791 580.651 659.273 580.879C658.754 581.099 658.339 581.415 658.026 581.827C657.714 582.239 657.547 582.722 657.526 583.276H653.104C653.126 582.018 653.484 580.911 654.18 579.952C654.877 578.993 655.814 578.244 656.993 577.704C658.179 577.157 659.518 576.884 661.009 576.884C662.515 576.884 663.832 577.157 664.962 577.704C666.091 578.251 666.968 578.989 667.593 579.92C668.225 580.843 668.538 581.88 668.531 583.031C668.538 584.252 668.158 585.271 667.391 586.088C666.631 586.905 665.64 587.423 664.418 587.643V587.814C666.024 588.02 667.245 588.577 668.083 589.487C668.928 590.388 669.347 591.518 669.34 592.874C669.347 594.117 668.989 595.222 668.264 596.188C667.547 597.153 666.556 597.913 665.292 598.467C664.028 599.021 662.579 599.298 660.945 599.298Z" fill="black"/>
<circle cx="661" cy="662" r="34" fill="#F3CBCB"/>
<path d="M651.772 669.165V665.532L660.881 651.182H664.013V656.21H662.159L656.417 665.298V665.468H669.361V669.165H651.772ZM662.244 673V668.057L662.33 666.448V651.182H666.655V673H662.244Z" fill="black"/>
<circle cx="661" cy="736" r="34" fill="#F3CBCB"/>
<path d="M661.069 747.298C659.564 747.298 658.221 747.021 657.042 746.467C655.87 745.913 654.94 745.15 654.251 744.177C653.562 743.204 653.203 742.089 653.175 740.832H657.65C657.699 741.677 658.054 742.362 658.715 742.888C659.375 743.413 660.16 743.676 661.069 743.676C661.794 743.676 662.433 743.516 662.987 743.197C663.548 742.87 663.985 742.419 664.297 741.844C664.617 741.261 664.777 740.594 664.777 739.841C664.777 739.074 664.613 738.399 664.287 737.817C663.967 737.234 663.523 736.78 662.955 736.453C662.387 736.126 661.737 735.96 661.005 735.952C660.366 735.952 659.745 736.084 659.141 736.347C658.544 736.609 658.079 736.968 657.745 737.423L653.644 736.688L654.677 725.182H668.015V728.953H658.48L657.916 734.418H658.044C658.427 733.879 659.006 733.431 659.78 733.076C660.554 732.721 661.421 732.543 662.38 732.543C663.694 732.543 664.865 732.852 665.895 733.47C666.925 734.088 667.738 734.937 668.335 736.016C668.931 737.089 669.226 738.325 669.219 739.724C669.226 741.194 668.885 742.501 668.196 743.644C667.515 744.781 666.559 745.675 665.331 746.329C664.109 746.975 662.689 747.298 661.069 747.298Z" fill="black"/>
<circle cx="661" cy="810" r="34" fill="#F3CBCB"/>
<path d="M661.24 821.298C660.118 821.291 659.034 821.103 657.99 820.734C656.953 820.364 656.023 819.764 655.199 818.933C654.375 818.102 653.722 817.001 653.239 815.631C652.763 814.26 652.525 812.577 652.525 810.581C652.532 808.749 652.742 807.112 653.154 805.67C653.573 804.221 654.169 802.992 654.944 801.984C655.725 800.975 656.659 800.208 657.745 799.683C658.832 799.15 660.05 798.884 661.4 798.884C662.855 798.884 664.141 799.168 665.256 799.736C666.371 800.297 667.266 801.06 667.941 802.026C668.623 802.992 669.034 804.075 669.176 805.276H664.627C664.45 804.516 664.077 803.919 663.509 803.486C662.941 803.053 662.238 802.836 661.4 802.836C659.979 802.836 658.9 803.454 658.161 804.69C657.429 805.925 657.056 807.605 657.042 809.729H657.191C657.518 809.082 657.958 808.532 658.512 808.077C659.074 807.616 659.709 807.264 660.419 807.023C661.137 806.774 661.893 806.65 662.689 806.65C663.981 806.65 665.132 806.955 666.14 807.566C667.149 808.17 667.944 809.001 668.527 810.059C669.109 811.117 669.4 812.328 669.4 813.692C669.4 815.169 669.056 816.483 668.367 817.634C667.685 818.784 666.73 819.686 665.501 820.339C664.279 820.986 662.859 821.305 661.24 821.298ZM661.218 817.676C661.929 817.676 662.564 817.506 663.125 817.165C663.686 816.824 664.127 816.362 664.446 815.78C664.766 815.197 664.926 814.544 664.926 813.82C664.926 813.095 664.766 812.445 664.446 811.87C664.134 811.295 663.701 810.837 663.147 810.496C662.593 810.155 661.961 809.984 661.25 809.984C660.718 809.984 660.224 810.084 659.77 810.283C659.322 810.482 658.928 810.759 658.587 811.114C658.253 811.469 657.99 811.881 657.799 812.349C657.607 812.811 657.511 813.305 657.511 813.83C657.511 814.533 657.671 815.176 657.99 815.759C658.317 816.341 658.757 816.806 659.311 817.154C659.873 817.502 660.508 817.676 661.218 817.676Z" fill="black"/>
<circle cx="661" cy="884" r="34" fill="#F3CBCB"/>
<path d="M654.71 895L663.755 877.102V876.953H653.219V873.182H668.528V877.006L659.473 895H654.71Z" fill="black"/>
<circle cx="661" cy="958" r="34" fill="#F3CBCB"/>
<path d="M660.991 969.298C659.35 969.298 657.891 969.032 656.612 968.499C655.341 967.96 654.343 967.224 653.619 966.294C652.894 965.364 652.532 964.309 652.532 963.13C652.532 962.221 652.738 961.386 653.15 960.626C653.569 959.859 654.137 959.224 654.854 958.719C655.572 958.208 656.374 957.881 657.262 957.739V957.59C656.097 957.356 655.153 956.791 654.428 955.896C653.704 954.994 653.342 953.947 653.342 952.754C653.342 951.624 653.672 950.619 654.332 949.739C654.993 948.851 655.898 948.155 657.049 947.651C658.207 947.139 659.521 946.884 660.991 946.884C662.461 946.884 663.771 947.139 664.922 947.651C666.079 948.162 666.989 948.862 667.649 949.749C668.31 950.63 668.643 951.631 668.65 952.754C668.643 953.954 668.274 955.001 667.543 955.896C666.811 956.791 665.873 957.356 664.73 957.59V957.739C665.604 957.881 666.396 958.208 667.106 958.719C667.823 959.224 668.391 959.859 668.81 960.626C669.236 961.386 669.453 962.221 669.46 963.13C669.453 964.309 669.087 965.364 668.363 966.294C667.638 967.224 666.637 967.96 665.359 968.499C664.087 969.032 662.631 969.298 660.991 969.298ZM660.991 965.911C661.722 965.911 662.361 965.779 662.908 965.516C663.455 965.246 663.881 964.877 664.187 964.408C664.499 963.933 664.655 963.386 664.655 962.768C664.655 962.136 664.496 961.578 664.176 961.095C663.856 960.605 663.423 960.222 662.876 959.945C662.329 959.661 661.701 959.518 660.991 959.518C660.288 959.518 659.659 959.661 659.105 959.945C658.551 960.222 658.114 960.605 657.795 961.095C657.482 961.578 657.326 962.136 657.326 962.768C657.326 963.386 657.479 963.933 657.784 964.408C658.089 964.877 658.519 965.246 659.073 965.516C659.627 965.779 660.266 965.911 660.991 965.911ZM660.991 956.163C661.601 956.163 662.145 956.038 662.621 955.79C663.097 955.541 663.469 955.197 663.739 954.756C664.009 954.316 664.144 953.808 664.144 953.233C664.144 952.665 664.009 952.168 663.739 951.741C663.469 951.308 663.1 950.971 662.631 950.729C662.163 950.481 661.616 950.357 660.991 950.357C660.373 950.357 659.826 950.481 659.35 950.729C658.874 950.971 658.501 951.308 658.231 951.741C657.969 952.168 657.837 952.665 657.837 953.233C657.837 953.808 657.972 954.316 658.242 954.756C658.512 955.197 658.885 955.541 659.361 955.79C659.837 956.038 660.38 956.163 660.991 956.163Z" fill="black"/>
<circle cx="661" cy="1032" r="34" fill="#F3CBCB"/>
<path d="M660.76 1020.88C661.882 1020.88 662.962 1021.07 663.999 1021.45C665.043 1021.82 665.973 1022.42 666.79 1023.25C667.614 1024.07 668.264 1025.17 668.74 1026.53C669.223 1027.89 669.468 1029.55 669.475 1031.53C669.475 1033.38 669.265 1035.03 668.846 1036.49C668.434 1037.94 667.841 1039.17 667.067 1040.19C666.293 1041.2 665.359 1041.98 664.265 1042.51C663.172 1043.04 661.95 1043.3 660.6 1043.3C659.145 1043.3 657.859 1043.02 656.744 1042.46C655.629 1041.89 654.73 1041.12 654.049 1040.14C653.374 1039.16 652.966 1038.06 652.824 1036.84H657.373C657.55 1037.64 657.923 1038.26 658.491 1038.7C659.059 1039.13 659.762 1039.35 660.6 1039.35C662.021 1039.35 663.1 1038.73 663.839 1037.49C664.578 1036.25 664.951 1034.55 664.958 1032.39H664.809C664.482 1033.03 664.042 1033.58 663.488 1034.04C662.934 1034.5 662.298 1034.85 661.581 1035.1C660.87 1035.34 660.114 1035.47 659.311 1035.47C658.026 1035.47 656.879 1035.17 655.87 1034.56C654.862 1033.96 654.066 1033.13 653.484 1032.07C652.902 1031.01 652.61 1029.8 652.61 1028.45C652.603 1026.98 652.941 1025.68 653.623 1024.54C654.304 1023.39 655.256 1022.5 656.478 1021.85C657.706 1021.2 659.134 1020.88 660.76 1020.88ZM660.792 1024.51C660.075 1024.51 659.436 1024.68 658.875 1025.02C658.321 1025.36 657.88 1025.82 657.554 1026.39C657.234 1026.97 657.078 1027.61 657.085 1028.32C657.085 1029.04 657.241 1029.68 657.554 1030.26C657.873 1030.83 658.306 1031.28 658.853 1031.62C659.407 1031.96 660.039 1032.12 660.75 1032.12C661.282 1032.12 661.776 1032.02 662.23 1031.82C662.685 1031.63 663.079 1031.35 663.413 1031C663.754 1030.65 664.02 1030.24 664.212 1029.78C664.404 1029.32 664.5 1028.83 664.5 1028.31C664.493 1027.62 664.329 1026.99 664.01 1026.41C663.69 1025.84 663.25 1025.38 662.689 1025.03C662.127 1024.68 661.495 1024.51 660.792 1024.51Z" fill="black"/>
<circle cx="661" cy="1106" r="34" fill="#F3CBCB"/>
<path d="M654.595 1095.18V1117H649.982V1099.56H649.854L644.857 1102.69V1098.6L650.259 1095.18H654.595ZM668.335 1117.48C666.502 1117.47 664.926 1117.02 663.605 1116.13C662.291 1115.23 661.279 1113.94 660.569 1112.24C659.865 1110.54 659.517 1108.5 659.525 1106.11C659.525 1103.73 659.876 1101.71 660.579 1100.03C661.289 1098.35 662.301 1097.08 663.615 1096.2C664.936 1095.32 666.51 1094.88 668.335 1094.88C670.16 1094.88 671.73 1095.32 673.044 1096.2C674.365 1097.09 675.38 1098.36 676.091 1100.04C676.801 1101.71 677.152 1103.73 677.145 1106.11C677.145 1108.51 676.79 1110.55 676.08 1112.25C675.377 1113.95 674.368 1115.24 673.054 1116.14C671.74 1117.03 670.167 1117.48 668.335 1117.48ZM668.335 1113.65C669.585 1113.65 670.583 1113.03 671.328 1111.77C672.074 1110.51 672.444 1108.63 672.436 1106.11C672.436 1104.46 672.266 1103.08 671.925 1101.98C671.591 1100.88 671.115 1100.05 670.498 1099.5C669.887 1098.94 669.166 1098.67 668.335 1098.67C667.092 1098.67 666.098 1099.29 665.352 1100.53C664.606 1101.77 664.23 1103.63 664.223 1106.11C664.223 1107.79 664.39 1109.19 664.723 1110.31C665.064 1111.42 665.544 1112.26 666.162 1112.82C666.779 1113.38 667.504 1113.65 668.335 1113.65Z" fill="black"/>
<circle cx="661" cy="1180" r="34" fill="#F3CBCB"/>
<path d="M655.474 1169.18V1191H650.861V1173.56H650.733L645.736 1176.69V1172.6L651.138 1169.18H655.474ZM660.659 1191V1187.68L668.425 1180.49C669.086 1179.85 669.64 1179.27 670.087 1178.76C670.542 1178.25 670.886 1177.75 671.121 1177.26C671.355 1176.76 671.472 1176.22 671.472 1175.65C671.472 1175.01 671.327 1174.46 671.036 1174C670.744 1173.53 670.347 1173.17 669.842 1172.92C669.338 1172.67 668.766 1172.54 668.127 1172.54C667.46 1172.54 666.877 1172.67 666.38 1172.94C665.883 1173.21 665.499 1173.6 665.229 1174.1C664.96 1174.61 664.825 1175.21 664.825 1175.9H660.446C660.446 1174.48 660.769 1173.24 661.415 1172.19C662.062 1171.13 662.967 1170.32 664.132 1169.75C665.297 1169.17 666.639 1168.88 668.159 1168.88C669.722 1168.88 671.082 1169.16 672.239 1169.71C673.404 1170.26 674.31 1171.02 674.956 1171.99C675.602 1172.97 675.925 1174.08 675.925 1175.34C675.925 1176.16 675.762 1176.98 675.435 1177.78C675.116 1178.58 674.544 1179.47 673.72 1180.45C672.896 1181.43 671.735 1182.59 670.237 1183.96L667.051 1187.08V1187.23H676.213V1191H660.659Z" fill="black"/>
<circle cx="661" cy="1254" r="34" fill="#F3CBCB"/>
<path d="M655.034 1243.18V1265H650.421V1247.56H650.293L645.297 1250.69V1246.6L650.698 1243.18H655.034ZM668.284 1265.3C666.693 1265.3 665.276 1265.02 664.034 1264.48C662.798 1263.92 661.821 1263.16 661.104 1262.2C660.394 1261.23 660.028 1260.1 660.007 1258.83H664.651C664.68 1259.36 664.854 1259.83 665.173 1260.24C665.5 1260.64 665.933 1260.94 666.473 1261.16C667.013 1261.38 667.62 1261.5 668.295 1261.5C668.998 1261.5 669.619 1261.37 670.159 1261.12C670.699 1260.87 671.122 1260.53 671.427 1260.09C671.732 1259.65 671.885 1259.14 671.885 1258.57C671.885 1257.98 671.722 1257.47 671.395 1257.02C671.075 1256.57 670.614 1256.21 670.01 1255.96C669.414 1255.7 668.703 1255.57 667.879 1255.57H665.845V1252.18H667.879C668.575 1252.18 669.19 1252.06 669.722 1251.82C670.262 1251.58 670.681 1251.25 670.98 1250.82C671.278 1250.39 671.427 1249.88 671.427 1249.31C671.427 1248.76 671.296 1248.28 671.033 1247.87C670.777 1247.45 670.415 1247.12 669.946 1246.89C669.485 1246.65 668.945 1246.54 668.327 1246.54C667.702 1246.54 667.13 1246.65 666.612 1246.88C666.093 1247.1 665.678 1247.41 665.365 1247.83C665.053 1248.24 664.886 1248.72 664.865 1249.28H660.443C660.465 1248.02 660.823 1246.91 661.519 1245.95C662.215 1244.99 663.153 1244.24 664.332 1243.7C665.518 1243.16 666.857 1242.88 668.348 1242.88C669.854 1242.88 671.171 1243.16 672.301 1243.7C673.43 1244.25 674.307 1244.99 674.932 1245.92C675.564 1246.84 675.877 1247.88 675.869 1249.03C675.877 1250.25 675.497 1251.27 674.73 1252.09C673.97 1252.9 672.979 1253.42 671.757 1253.64V1253.81C673.362 1254.02 674.584 1254.58 675.422 1255.49C676.267 1256.39 676.686 1257.52 676.679 1258.87C676.686 1260.12 676.328 1261.22 675.603 1262.19C674.886 1263.15 673.895 1263.91 672.631 1264.47C671.367 1265.02 669.918 1265.3 668.284 1265.3Z" fill="black"/>
<circle cx="661" cy="1328" r="34" fill="#F3CBCB"/>
<path d="M654.756 1317.18V1339H650.143V1321.56H650.015L645.019 1324.69V1320.6L650.42 1317.18H654.756ZM659.611 1335.16V1331.53L668.72 1317.18H671.852V1322.21H669.998L664.256 1331.3V1331.47H677.2V1335.16H659.611ZM670.083 1339V1334.06L670.169 1332.45V1317.18H674.494V1339H670.083Z" fill="black"/>
<circle cx="661" cy="1402" r="34" fill="#F3CBCB"/>
<path d="M655.254 1391.18V1413H650.641V1395.56H650.513L645.517 1398.69V1394.6L650.918 1391.18H655.254ZM668.408 1413.3C666.902 1413.3 665.56 1413.02 664.381 1412.47C663.209 1411.91 662.279 1411.15 661.59 1410.18C660.901 1409.2 660.542 1408.09 660.514 1406.83H664.988C665.038 1407.68 665.393 1408.36 666.054 1408.89C666.714 1409.41 667.499 1409.68 668.408 1409.68C669.133 1409.68 669.772 1409.52 670.326 1409.2C670.887 1408.87 671.324 1408.42 671.636 1407.84C671.956 1407.26 672.116 1406.59 672.116 1405.84C672.116 1405.07 671.952 1404.4 671.625 1403.82C671.306 1403.23 670.862 1402.78 670.294 1402.45C669.726 1402.13 669.076 1401.96 668.344 1401.95C667.705 1401.95 667.084 1402.08 666.48 1402.35C665.883 1402.61 665.418 1402.97 665.084 1403.42L660.983 1402.69L662.016 1391.18H675.354V1394.95H665.819L665.255 1400.42H665.383C665.766 1399.88 666.345 1399.43 667.119 1399.08C667.893 1398.72 668.76 1398.54 669.718 1398.54C671.032 1398.54 672.204 1398.85 673.234 1399.47C674.264 1400.09 675.077 1400.94 675.674 1402.02C676.27 1403.09 676.565 1404.32 676.558 1405.72C676.565 1407.19 676.224 1408.5 675.535 1409.64C674.853 1410.78 673.898 1411.68 672.669 1412.33C671.448 1412.98 670.027 1413.3 668.408 1413.3Z" fill="black"/>
<circle cx="661" cy="1476" r="34" fill="#F3CBCB"/>
<path d="M655.019 1465.18V1487H650.407V1469.56H650.279L645.282 1472.69V1468.6L650.684 1465.18H655.019ZM668.579 1487.3C667.456 1487.29 666.373 1487.1 665.329 1486.73C664.292 1486.36 663.362 1485.76 662.538 1484.93C661.714 1484.1 661.061 1483 660.578 1481.63C660.102 1480.26 659.864 1478.58 659.864 1476.58C659.871 1474.75 660.081 1473.11 660.493 1471.67C660.912 1470.22 661.508 1468.99 662.282 1467.98C663.064 1466.98 663.998 1466.21 665.084 1465.68C666.171 1465.15 667.389 1464.88 668.738 1464.88C670.194 1464.88 671.48 1465.17 672.595 1465.74C673.71 1466.3 674.605 1467.06 675.28 1468.03C675.961 1468.99 676.373 1470.08 676.515 1471.28H671.966C671.789 1470.52 671.416 1469.92 670.848 1469.49C670.28 1469.05 669.576 1468.84 668.738 1468.84C667.318 1468.84 666.238 1469.45 665.5 1470.69C664.768 1471.93 664.395 1473.61 664.381 1475.73H664.53C664.857 1475.08 665.297 1474.53 665.851 1474.08C666.412 1473.62 667.048 1473.26 667.758 1473.02C668.476 1472.77 669.232 1472.65 670.027 1472.65C671.32 1472.65 672.471 1472.96 673.479 1473.57C674.488 1474.17 675.283 1475 675.866 1476.06C676.448 1477.12 676.739 1478.33 676.739 1479.69C676.739 1481.17 676.395 1482.48 675.706 1483.63C675.024 1484.78 674.069 1485.69 672.84 1486.34C671.618 1486.99 670.198 1487.31 668.579 1487.3ZM668.557 1483.68C669.267 1483.68 669.903 1483.51 670.464 1483.16C671.025 1482.82 671.466 1482.36 671.785 1481.78C672.105 1481.2 672.265 1480.54 672.265 1479.82C672.265 1479.1 672.105 1478.45 671.785 1477.87C671.473 1477.29 671.04 1476.84 670.486 1476.5C669.932 1476.15 669.299 1475.98 668.589 1475.98C668.057 1475.98 667.563 1476.08 667.108 1476.28C666.661 1476.48 666.267 1476.76 665.926 1477.11C665.592 1477.47 665.329 1477.88 665.138 1478.35C664.946 1478.81 664.85 1479.3 664.85 1479.83C664.85 1480.53 665.01 1481.18 665.329 1481.76C665.656 1482.34 666.096 1482.81 666.65 1483.15C667.211 1483.5 667.847 1483.68 668.557 1483.68Z" fill="black"/>
<circle cx="661" cy="1550" r="34" fill="#F3CBCB"/>
<path d="M656.001 1539.18V1561H651.388V1543.56H651.26L646.264 1546.69V1542.6L651.665 1539.18H656.001ZM662.049 1561L671.094 1543.1V1542.95H660.558V1539.18H675.867V1543.01L666.811 1561H662.049Z" fill="black"/>
<circle cx="661" cy="1624" r="34" fill="#F3CBCB"/>
<path d="M655.005 1613.18V1635H650.392V1617.56H650.264L645.268 1620.69V1616.6L650.669 1613.18H655.005ZM668.33 1635.3C666.689 1635.3 665.229 1635.03 663.951 1634.5C662.68 1633.96 661.682 1633.22 660.957 1632.29C660.233 1631.36 659.871 1630.31 659.871 1629.13C659.871 1628.22 660.077 1627.39 660.489 1626.63C660.908 1625.86 661.476 1625.22 662.193 1624.72C662.911 1624.21 663.713 1623.88 664.601 1623.74V1623.59C663.436 1623.36 662.491 1622.79 661.767 1621.9C661.043 1620.99 660.68 1619.95 660.68 1618.75C660.68 1617.62 661.011 1616.62 661.671 1615.74C662.332 1614.85 663.237 1614.15 664.388 1613.65C665.545 1613.14 666.859 1612.88 668.33 1612.88C669.8 1612.88 671.11 1613.14 672.261 1613.65C673.418 1614.16 674.327 1614.86 674.988 1615.75C675.648 1616.63 675.982 1617.63 675.989 1618.75C675.982 1619.95 675.613 1621 674.881 1621.9C674.15 1622.79 673.212 1623.36 672.069 1623.59V1623.74C672.942 1623.88 673.734 1624.21 674.445 1624.72C675.162 1625.22 675.73 1625.86 676.149 1626.63C676.575 1627.39 676.792 1628.22 676.799 1629.13C676.792 1630.31 676.426 1631.36 675.702 1632.29C674.977 1633.22 673.976 1633.96 672.697 1634.5C671.426 1635.03 669.97 1635.3 668.33 1635.3ZM668.33 1631.91C669.061 1631.91 669.7 1631.78 670.247 1631.52C670.794 1631.25 671.22 1630.88 671.526 1630.41C671.838 1629.93 671.994 1629.39 671.994 1628.77C671.994 1628.14 671.835 1627.58 671.515 1627.1C671.195 1626.61 670.762 1626.22 670.215 1625.94C669.668 1625.66 669.04 1625.52 668.33 1625.52C667.626 1625.52 666.998 1625.66 666.444 1625.94C665.89 1626.22 665.453 1626.61 665.134 1627.1C664.821 1627.58 664.665 1628.14 664.665 1628.77C664.665 1629.39 664.817 1629.93 665.123 1630.41C665.428 1630.88 665.858 1631.25 666.412 1631.52C666.966 1631.78 667.605 1631.91 668.33 1631.91ZM668.33 1622.16C668.94 1622.16 669.484 1622.04 669.96 1621.79C670.435 1621.54 670.808 1621.2 671.078 1620.76C671.348 1620.32 671.483 1619.81 671.483 1619.23C671.483 1618.66 671.348 1618.17 671.078 1617.74C670.808 1617.31 670.439 1616.97 669.97 1616.73C669.501 1616.48 668.955 1616.36 668.33 1616.36C667.712 1616.36 667.165 1616.48 666.689 1616.73C666.213 1616.97 665.84 1617.31 665.57 1617.74C665.308 1618.17 665.176 1618.66 665.176 1619.23C665.176 1619.81 665.311 1620.32 665.581 1620.76C665.851 1621.2 666.224 1621.54 666.7 1621.79C667.175 1622.04 667.719 1622.16 668.33 1622.16Z" fill="black"/>
<circle cx="661" cy="1698" r="34" fill="#F3CBCB"/>
<path d="M655.019 1687.18V1709H650.407V1691.56H650.279L645.282 1694.69V1690.6L650.684 1687.18H655.019ZM668.099 1686.88C669.221 1686.88 670.301 1687.07 671.338 1687.45C672.382 1687.82 673.312 1688.42 674.129 1689.25C674.953 1690.07 675.603 1691.17 676.079 1692.53C676.562 1693.89 676.807 1695.55 676.814 1697.53C676.814 1699.38 676.604 1701.03 676.185 1702.49C675.773 1703.94 675.18 1705.17 674.406 1706.19C673.632 1707.2 672.698 1707.98 671.604 1708.51C670.51 1709.04 669.289 1709.3 667.939 1709.3C666.483 1709.3 665.198 1709.02 664.083 1708.46C662.968 1707.89 662.069 1707.12 661.388 1706.14C660.713 1705.16 660.304 1704.06 660.162 1702.84H664.711C664.889 1703.64 665.262 1704.26 665.83 1704.7C666.398 1705.13 667.101 1705.35 667.939 1705.35C669.36 1705.35 670.439 1704.73 671.178 1703.49C671.917 1702.25 672.29 1700.55 672.297 1698.39H672.147C671.821 1699.03 671.38 1699.58 670.826 1700.04C670.272 1700.5 669.637 1700.85 668.919 1701.1C668.209 1701.34 667.453 1701.47 666.65 1701.47C665.365 1701.47 664.218 1701.17 663.209 1700.56C662.201 1699.96 661.405 1699.13 660.823 1698.07C660.241 1697.01 659.949 1695.8 659.949 1694.45C659.942 1692.98 660.28 1691.68 660.961 1690.54C661.643 1689.39 662.595 1688.5 663.816 1687.85C665.045 1687.2 666.473 1686.88 668.099 1686.88ZM668.131 1690.51C667.414 1690.51 666.775 1690.68 666.214 1691.02C665.66 1691.36 665.219 1691.82 664.892 1692.39C664.573 1692.97 664.417 1693.61 664.424 1694.32C664.424 1695.04 664.58 1695.68 664.892 1696.26C665.212 1696.83 665.645 1697.28 666.192 1697.62C666.746 1697.96 667.378 1698.12 668.089 1698.12C668.621 1698.12 669.115 1698.02 669.569 1697.82C670.024 1697.63 670.418 1697.35 670.752 1697C671.093 1696.65 671.359 1696.24 671.551 1695.78C671.743 1695.32 671.839 1694.83 671.839 1694.31C671.831 1693.62 671.668 1692.99 671.348 1692.41C671.029 1691.84 670.589 1691.38 670.027 1691.03C669.466 1690.68 668.834 1690.51 668.131 1690.51Z" fill="black"/>
<circle cx="661" cy="1772" r="34" fill="#F3CBCB"/>
<path d="M642.993 1783V1779.68L650.759 1772.49C651.42 1771.85 651.974 1771.27 652.421 1770.76C652.876 1770.25 653.22 1769.75 653.455 1769.26C653.689 1768.76 653.806 1768.22 653.806 1767.65C653.806 1767.01 653.661 1766.46 653.369 1766C653.078 1765.53 652.681 1765.17 652.176 1764.92C651.672 1764.67 651.1 1764.54 650.461 1764.54C649.794 1764.54 649.211 1764.67 648.714 1764.94C648.217 1765.21 647.833 1765.6 647.563 1766.1C647.294 1766.61 647.159 1767.21 647.159 1767.9H642.78C642.78 1766.48 643.103 1765.24 643.749 1764.19C644.396 1763.13 645.301 1762.32 646.466 1761.75C647.631 1761.17 648.973 1760.88 650.493 1760.88C652.056 1760.88 653.416 1761.16 654.573 1761.71C655.738 1762.26 656.644 1763.02 657.29 1763.99C657.936 1764.97 658.259 1766.08 658.259 1767.34C658.259 1768.16 658.096 1768.98 657.769 1769.78C657.45 1770.58 656.878 1771.47 656.054 1772.45C655.23 1773.43 654.069 1774.59 652.57 1775.96L649.385 1779.08V1779.23H658.547V1783H642.993ZM670.444 1783.48C668.612 1783.47 667.035 1783.02 665.714 1782.13C664.4 1781.23 663.388 1779.94 662.678 1778.24C661.975 1776.54 661.627 1774.5 661.634 1772.11C661.634 1769.73 661.985 1767.71 662.689 1766.03C663.399 1764.35 664.411 1763.08 665.725 1762.2C667.046 1761.32 668.619 1760.88 670.444 1760.88C672.27 1760.88 673.839 1761.32 675.153 1762.2C676.474 1763.09 677.49 1764.36 678.2 1766.04C678.91 1767.71 679.262 1769.73 679.255 1772.11C679.255 1774.51 678.9 1776.55 678.189 1778.25C677.486 1779.95 676.478 1781.24 675.164 1782.14C673.85 1783.03 672.277 1783.48 670.444 1783.48ZM670.444 1779.65C671.694 1779.65 672.692 1779.03 673.438 1777.77C674.184 1776.51 674.553 1774.63 674.546 1772.11C674.546 1770.46 674.375 1769.08 674.034 1767.98C673.701 1766.88 673.225 1766.05 672.607 1765.5C671.996 1764.94 671.275 1764.67 670.444 1764.67C669.201 1764.67 668.207 1765.29 667.461 1766.53C666.716 1767.77 666.339 1769.63 666.332 1772.11C666.332 1773.79 666.499 1775.19 666.833 1776.31C667.174 1777.42 667.653 1778.26 668.271 1778.82C668.889 1779.38 669.613 1779.65 670.444 1779.65Z" fill="black"/>
<circle cx="804" cy="366" r="34" fill="#E1B0DC"/>
<path d="M802.996 377.479C801.164 377.472 799.587 377.021 798.266 376.126C796.952 375.232 795.94 373.935 795.23 372.238C794.527 370.54 794.179 368.499 794.186 366.112C794.186 363.733 794.537 361.705 795.24 360.029C795.951 358.353 796.963 357.078 798.277 356.205C799.598 355.324 801.171 354.884 802.996 354.884C804.821 354.884 806.391 355.324 807.705 356.205C809.026 357.085 810.041 358.364 810.752 360.04C811.462 361.709 811.813 363.733 811.806 366.112C811.806 368.506 811.451 370.551 810.741 372.249C810.038 373.946 809.029 375.242 807.715 376.137C806.402 377.032 804.828 377.479 802.996 377.479ZM802.996 373.655C804.246 373.655 805.244 373.026 805.99 371.769C806.735 370.512 807.105 368.626 807.098 366.112C807.098 364.457 806.927 363.08 806.586 361.979C806.252 360.878 805.777 360.05 805.159 359.496C804.548 358.942 803.827 358.665 802.996 358.665C801.753 358.665 800.759 359.287 800.013 360.53C799.267 361.773 798.891 363.634 798.884 366.112C798.884 367.788 799.051 369.188 799.384 370.31C799.725 371.425 800.205 372.263 800.823 372.824C801.441 373.378 802.165 373.655 802.996 373.655Z" fill="black"/>
<circle cx="804" cy="440" r="34" fill="#E1B0DC"/>
<path d="M807.422 429.182V451H802.809V433.56H802.681L797.685 436.692V432.602L803.086 429.182H807.422Z" fill="black"/>
<circle cx="804" cy="514" r="34" fill="#E1B0DC"/>
<path d="M796.32 525V521.676L804.087 514.485C804.747 513.846 805.301 513.271 805.748 512.759C806.203 512.248 806.547 511.747 806.782 511.257C807.016 510.76 807.133 510.224 807.133 509.648C807.133 509.009 806.988 508.459 806.697 507.997C806.405 507.528 806.008 507.17 805.503 506.921C804.999 506.665 804.427 506.538 803.788 506.538C803.121 506.538 802.538 506.673 802.041 506.942C801.544 507.212 801.16 507.599 800.891 508.104C800.621 508.608 800.486 509.208 800.486 509.904H796.107C796.107 508.477 796.43 507.237 797.077 506.186C797.723 505.135 798.628 504.322 799.793 503.746C800.958 503.171 802.3 502.884 803.82 502.884C805.383 502.884 806.743 503.161 807.9 503.714C809.065 504.261 809.971 505.021 810.617 505.994C811.263 506.967 811.587 508.082 811.587 509.339C811.587 510.163 811.423 510.977 811.097 511.779C810.777 512.582 810.205 513.473 809.381 514.453C808.557 515.426 807.396 516.594 805.898 517.958L802.712 521.08V521.229H811.874V525H796.32Z" fill="black"/>
<circle cx="804" cy="588" r="34" fill="#E1B0DC"/>
<path d="M803.945 599.298C802.354 599.298 800.938 599.025 799.695 598.478C798.459 597.924 797.482 597.164 796.765 596.198C796.055 595.225 795.689 594.103 795.668 592.832H800.313C800.341 593.364 800.515 593.833 800.835 594.238C801.161 594.636 801.595 594.945 802.134 595.165C802.674 595.385 803.281 595.495 803.956 595.495C804.659 595.495 805.281 595.371 805.82 595.122C806.36 594.874 806.783 594.529 807.088 594.089C807.394 593.648 807.546 593.141 807.546 592.565C807.546 591.983 807.383 591.468 807.056 591.021C806.737 590.566 806.275 590.211 805.671 589.955C805.075 589.7 804.364 589.572 803.541 589.572H801.506V586.184H803.541C804.237 586.184 804.851 586.063 805.384 585.822C805.923 585.58 806.342 585.246 806.641 584.82C806.939 584.387 807.088 583.883 807.088 583.308C807.088 582.761 806.957 582.281 806.694 581.869C806.438 581.45 806.076 581.124 805.607 580.889C805.146 580.655 804.606 580.538 803.988 580.538C803.363 580.538 802.791 580.651 802.273 580.879C801.754 581.099 801.339 581.415 801.026 581.827C800.714 582.239 800.547 582.722 800.526 583.276H796.104C796.126 582.018 796.484 580.911 797.18 579.952C797.877 578.993 798.814 578.244 799.993 577.704C801.179 577.157 802.518 576.884 804.009 576.884C805.515 576.884 806.832 577.157 807.962 577.704C809.091 578.251 809.968 578.989 810.593 579.92C811.225 580.843 811.538 581.88 811.531 583.031C811.538 584.252 811.158 585.271 810.391 586.088C809.631 586.905 808.64 587.423 807.418 587.643V587.814C809.024 588.02 810.245 588.577 811.083 589.487C811.928 590.388 812.347 591.518 812.34 592.874C812.347 594.117 811.989 595.222 811.264 596.188C810.547 597.153 809.556 597.913 808.292 598.467C807.028 599.021 805.579 599.298 803.945 599.298Z" fill="black"/>
<circle cx="804" cy="662" r="34" fill="#E1B0DC"/>
<path d="M794.772 669.165V665.532L803.881 651.182H807.013V656.21H805.159L799.417 665.298V665.468H812.361V669.165H794.772ZM805.244 673V668.057L805.33 666.448V651.182H809.655V673H805.244Z" fill="black"/>
<circle cx="804" cy="736" r="34" fill="#E1B0DC"/>
<path d="M804.069 747.298C802.564 747.298 801.221 747.021 800.042 746.467C798.87 745.913 797.94 745.15 797.251 744.177C796.562 743.204 796.203 742.089 796.175 740.832H800.65C800.699 741.677 801.054 742.362 801.715 742.888C802.375 743.413 803.16 743.676 804.069 743.676C804.794 743.676 805.433 743.516 805.987 743.197C806.548 742.87 806.985 742.419 807.297 741.844C807.617 741.261 807.777 740.594 807.777 739.841C807.777 739.074 807.613 738.399 807.287 737.817C806.967 737.234 806.523 736.78 805.955 736.453C805.387 736.126 804.737 735.96 804.005 735.952C803.366 735.952 802.745 736.084 802.141 736.347C801.544 736.609 801.079 736.968 800.745 737.423L796.644 736.688L797.677 725.182H811.015V728.953H801.48L800.916 734.418H801.044C801.427 733.879 802.006 733.431 802.78 733.076C803.554 732.721 804.421 732.543 805.38 732.543C806.694 732.543 807.865 732.852 808.895 733.47C809.925 734.088 810.738 734.937 811.335 736.016C811.931 737.089 812.226 738.325 812.219 739.724C812.226 741.194 811.885 742.501 811.196 743.644C810.515 744.781 809.559 745.675 808.331 746.329C807.109 746.975 805.689 747.298 804.069 747.298Z" fill="black"/>
<circle cx="804" cy="810" r="34" fill="#E1B0DC"/>
<path d="M804.24 821.298C803.118 821.291 802.034 821.103 800.99 820.734C799.953 820.364 799.023 819.764 798.199 818.933C797.375 818.102 796.722 817.001 796.239 815.631C795.763 814.26 795.525 812.577 795.525 810.581C795.532 808.749 795.742 807.112 796.154 805.67C796.573 804.221 797.169 802.992 797.944 801.984C798.725 800.975 799.659 800.208 800.745 799.683C801.832 799.15 803.05 798.884 804.4 798.884C805.855 798.884 807.141 799.168 808.256 799.736C809.371 800.297 810.266 801.06 810.941 802.026C811.623 802.992 812.034 804.075 812.176 805.276H807.627C807.45 804.516 807.077 803.919 806.509 803.486C805.941 803.053 805.238 802.836 804.4 802.836C802.979 802.836 801.9 803.454 801.161 804.69C800.429 805.925 800.056 807.605 800.042 809.729H800.191C800.518 809.082 800.958 808.532 801.512 808.077C802.074 807.616 802.709 807.264 803.419 807.023C804.137 806.774 804.893 806.65 805.689 806.65C806.981 806.65 808.132 806.955 809.14 807.566C810.149 808.17 810.944 809.001 811.527 810.059C812.109 811.117 812.4 812.328 812.4 813.692C812.4 815.169 812.056 816.483 811.367 817.634C810.685 818.784 809.73 819.686 808.501 820.339C807.279 820.986 805.859 821.305 804.24 821.298ZM804.218 817.676C804.929 817.676 805.564 817.506 806.125 817.165C806.686 816.824 807.127 816.362 807.446 815.78C807.766 815.197 807.926 814.544 807.926 813.82C807.926 813.095 807.766 812.445 807.446 811.87C807.134 811.295 806.701 810.837 806.147 810.496C805.593 810.155 804.961 809.984 804.25 809.984C803.718 809.984 803.224 810.084 802.77 810.283C802.322 810.482 801.928 810.759 801.587 811.114C801.253 811.469 800.99 811.881 800.799 812.349C800.607 812.811 800.511 813.305 800.511 813.83C800.511 814.533 800.671 815.176 800.99 815.759C801.317 816.341 801.757 816.806 802.311 817.154C802.873 817.502 803.508 817.676 804.218 817.676Z" fill="black"/>
<circle cx="804" cy="884" r="34" fill="#E1B0DC"/>
<path d="M797.71 895L806.755 877.102V876.953H796.219V873.182H811.528V877.006L802.473 895H797.71Z" fill="black"/>
<circle cx="804" cy="958" r="34" fill="#E1B0DC"/>
<path d="M803.991 969.298C802.35 969.298 800.891 969.032 799.612 968.499C798.341 967.96 797.343 967.224 796.619 966.294C795.894 965.364 795.532 964.309 795.532 963.13C795.532 962.221 795.738 961.386 796.15 960.626C796.569 959.859 797.137 959.224 797.854 958.719C798.572 958.208 799.374 957.881 800.262 957.739V957.59C799.097 957.356 798.153 956.791 797.428 955.896C796.704 954.994 796.342 953.947 796.342 952.754C796.342 951.624 796.672 950.619 797.332 949.739C797.993 948.851 798.898 948.155 800.049 947.651C801.207 947.139 802.521 946.884 803.991 946.884C805.461 946.884 806.771 947.139 807.922 947.651C809.079 948.162 809.989 948.862 810.649 949.749C811.31 950.63 811.643 951.631 811.65 952.754C811.643 953.954 811.274 955.001 810.543 955.896C809.811 956.791 808.873 957.356 807.73 957.59V957.739C808.604 957.881 809.396 958.208 810.106 958.719C810.823 959.224 811.391 959.859 811.81 960.626C812.236 961.386 812.453 962.221 812.46 963.13C812.453 964.309 812.087 965.364 811.363 966.294C810.638 967.224 809.637 967.96 808.359 968.499C807.087 969.032 805.631 969.298 803.991 969.298ZM803.991 965.911C804.722 965.911 805.361 965.779 805.908 965.516C806.455 965.246 806.881 964.877 807.187 964.408C807.499 963.933 807.655 963.386 807.655 962.768C807.655 962.136 807.496 961.578 807.176 961.095C806.856 960.605 806.423 960.222 805.876 959.945C805.329 959.661 804.701 959.518 803.991 959.518C803.288 959.518 802.659 959.661 802.105 959.945C801.551 960.222 801.114 960.605 800.795 961.095C800.482 961.578 800.326 962.136 800.326 962.768C800.326 963.386 800.479 963.933 800.784 964.408C801.089 964.877 801.519 965.246 802.073 965.516C802.627 965.779 803.266 965.911 803.991 965.911ZM803.991 956.163C804.601 956.163 805.145 956.038 805.621 955.79C806.097 955.541 806.469 955.197 806.739 954.756C807.009 954.316 807.144 953.808 807.144 953.233C807.144 952.665 807.009 952.168 806.739 951.741C806.469 951.308 806.1 950.971 805.631 950.729C805.163 950.481 804.616 950.357 803.991 950.357C803.373 950.357 802.826 950.481 802.35 950.729C801.874 950.971 801.501 951.308 801.231 951.741C800.969 952.168 800.837 952.665 800.837 953.233C800.837 953.808 800.972 954.316 801.242 954.756C801.512 955.197 801.885 955.541 802.361 955.79C802.837 956.038 803.38 956.163 803.991 956.163Z" fill="black"/>
<circle cx="804" cy="1032" r="34" fill="#E1B0DC"/>
<path d="M803.76 1020.88C804.882 1020.88 805.962 1021.07 806.999 1021.45C808.043 1021.82 808.973 1022.42 809.79 1023.25C810.614 1024.07 811.264 1025.17 811.74 1026.53C812.223 1027.89 812.468 1029.55 812.475 1031.53C812.475 1033.38 812.265 1035.03 811.846 1036.49C811.434 1037.94 810.841 1039.17 810.067 1040.19C809.293 1041.2 808.359 1041.98 807.265 1042.51C806.172 1043.04 804.95 1043.3 803.6 1043.3C802.145 1043.3 800.859 1043.02 799.744 1042.46C798.629 1041.89 797.73 1041.12 797.049 1040.14C796.374 1039.16 795.966 1038.06 795.824 1036.84H800.373C800.55 1037.64 800.923 1038.26 801.491 1038.7C802.059 1039.13 802.762 1039.35 803.6 1039.35C805.021 1039.35 806.1 1038.73 806.839 1037.49C807.578 1036.25 807.951 1034.55 807.958 1032.39H807.809C807.482 1033.03 807.042 1033.58 806.488 1034.04C805.934 1034.5 805.298 1034.85 804.581 1035.1C803.87 1035.34 803.114 1035.47 802.311 1035.47C801.026 1035.47 799.879 1035.17 798.87 1034.56C797.862 1033.96 797.066 1033.13 796.484 1032.07C795.902 1031.01 795.61 1029.8 795.61 1028.45C795.603 1026.98 795.941 1025.68 796.623 1024.54C797.304 1023.39 798.256 1022.5 799.478 1021.85C800.706 1021.2 802.134 1020.88 803.76 1020.88ZM803.792 1024.51C803.075 1024.51 802.436 1024.68 801.875 1025.02C801.321 1025.36 800.88 1025.82 800.554 1026.39C800.234 1026.97 800.078 1027.61 800.085 1028.32C800.085 1029.04 800.241 1029.68 800.554 1030.26C800.873 1030.83 801.306 1031.28 801.853 1031.62C802.407 1031.96 803.039 1032.12 803.75 1032.12C804.282 1032.12 804.776 1032.02 805.23 1031.82C805.685 1031.63 806.079 1031.35 806.413 1031C806.754 1030.65 807.02 1030.24 807.212 1029.78C807.404 1029.32 807.5 1028.83 807.5 1028.31C807.493 1027.62 807.329 1026.99 807.01 1026.41C806.69 1025.84 806.25 1025.38 805.689 1025.03C805.127 1024.68 804.495 1024.51 803.792 1024.51Z" fill="black"/>
<circle cx="804" cy="1106" r="34" fill="#E1B0DC"/>
<path d="M797.595 1095.18V1117H792.982V1099.56H792.854L787.857 1102.69V1098.6L793.259 1095.18H797.595ZM811.335 1117.48C809.502 1117.47 807.926 1117.02 806.605 1116.13C805.291 1115.23 804.279 1113.94 803.569 1112.24C802.865 1110.54 802.517 1108.5 802.525 1106.11C802.525 1103.73 802.876 1101.71 803.579 1100.03C804.289 1098.35 805.301 1097.08 806.615 1096.2C807.936 1095.32 809.51 1094.88 811.335 1094.88C813.16 1094.88 814.73 1095.32 816.044 1096.2C817.365 1097.09 818.38 1098.36 819.091 1100.04C819.801 1101.71 820.152 1103.73 820.145 1106.11C820.145 1108.51 819.79 1110.55 819.08 1112.25C818.377 1113.95 817.368 1115.24 816.054 1116.14C814.74 1117.03 813.167 1117.48 811.335 1117.48ZM811.335 1113.65C812.585 1113.65 813.583 1113.03 814.328 1111.77C815.074 1110.51 815.444 1108.63 815.436 1106.11C815.436 1104.46 815.266 1103.08 814.925 1101.98C814.591 1100.88 814.115 1100.05 813.498 1099.5C812.887 1098.94 812.166 1098.67 811.335 1098.67C810.092 1098.67 809.098 1099.29 808.352 1100.53C807.606 1101.77 807.23 1103.63 807.223 1106.11C807.223 1107.79 807.39 1109.19 807.723 1110.31C808.064 1111.42 808.544 1112.26 809.162 1112.82C809.779 1113.38 810.504 1113.65 811.335 1113.65Z" fill="black"/>
<circle cx="804" cy="1180" r="34" fill="#E1B0DC"/>
<path d="M798.474 1169.18V1191H793.861V1173.56H793.733L788.736 1176.69V1172.6L794.138 1169.18H798.474ZM803.659 1191V1187.68L811.425 1180.49C812.086 1179.85 812.64 1179.27 813.087 1178.76C813.542 1178.25 813.886 1177.75 814.121 1177.26C814.355 1176.76 814.472 1176.22 814.472 1175.65C814.472 1175.01 814.327 1174.46 814.036 1174C813.744 1173.53 813.347 1173.17 812.842 1172.92C812.338 1172.67 811.766 1172.54 811.127 1172.54C810.46 1172.54 809.877 1172.67 809.38 1172.94C808.883 1173.21 808.499 1173.6 808.229 1174.1C807.96 1174.61 807.825 1175.21 807.825 1175.9H803.446C803.446 1174.48 803.769 1173.24 804.415 1172.19C805.062 1171.13 805.967 1170.32 807.132 1169.75C808.297 1169.17 809.639 1168.88 811.159 1168.88C812.722 1168.88 814.082 1169.16 815.239 1169.71C816.404 1170.26 817.31 1171.02 817.956 1171.99C818.602 1172.97 818.925 1174.08 818.925 1175.34C818.925 1176.16 818.762 1176.98 818.435 1177.78C818.116 1178.58 817.544 1179.47 816.72 1180.45C815.896 1181.43 814.735 1182.59 813.237 1183.96L810.051 1187.08V1187.23H819.213V1191H803.659Z" fill="black"/>
<circle cx="804" cy="1254" r="34" fill="#E1B0DC"/>
<path d="M798.034 1243.18V1265H793.421V1247.56H793.293L788.297 1250.69V1246.6L793.698 1243.18H798.034ZM811.284 1265.3C809.693 1265.3 808.276 1265.02 807.034 1264.48C805.798 1263.92 804.821 1263.16 804.104 1262.2C803.394 1261.23 803.028 1260.1 803.007 1258.83H807.651C807.68 1259.36 807.854 1259.83 808.173 1260.24C808.5 1260.64 808.933 1260.94 809.473 1261.16C810.013 1261.38 810.62 1261.5 811.295 1261.5C811.998 1261.5 812.619 1261.37 813.159 1261.12C813.699 1260.87 814.122 1260.53 814.427 1260.09C814.732 1259.65 814.885 1259.14 814.885 1258.57C814.885 1257.98 814.722 1257.47 814.395 1257.02C814.075 1256.57 813.614 1256.21 813.01 1255.96C812.414 1255.7 811.703 1255.57 810.879 1255.57H808.845V1252.18H810.879C811.575 1252.18 812.19 1252.06 812.722 1251.82C813.262 1251.58 813.681 1251.25 813.98 1250.82C814.278 1250.39 814.427 1249.88 814.427 1249.31C814.427 1248.76 814.296 1248.28 814.033 1247.87C813.777 1247.45 813.415 1247.12 812.946 1246.89C812.485 1246.65 811.945 1246.54 811.327 1246.54C810.702 1246.54 810.13 1246.65 809.612 1246.88C809.093 1247.1 808.678 1247.41 808.365 1247.83C808.053 1248.24 807.886 1248.72 807.865 1249.28H803.443C803.465 1248.02 803.823 1246.91 804.519 1245.95C805.215 1244.99 806.153 1244.24 807.332 1243.7C808.518 1243.16 809.857 1242.88 811.348 1242.88C812.854 1242.88 814.171 1243.16 815.301 1243.7C816.43 1244.25 817.307 1244.99 817.932 1245.92C818.564 1246.84 818.877 1247.88 818.869 1249.03C818.877 1250.25 818.497 1251.27 817.73 1252.09C816.97 1252.9 815.979 1253.42 814.757 1253.64V1253.81C816.362 1254.02 817.584 1254.58 818.422 1255.49C819.267 1256.39 819.686 1257.52 819.679 1258.87C819.686 1260.12 819.328 1261.22 818.603 1262.19C817.886 1263.15 816.895 1263.91 815.631 1264.47C814.367 1265.02 812.918 1265.3 811.284 1265.3Z" fill="black"/>
<circle cx="804" cy="1328" r="34" fill="#E1B0DC"/>
<path d="M797.756 1317.18V1339H793.143V1321.56H793.015L788.019 1324.69V1320.6L793.42 1317.18H797.756ZM802.611 1335.16V1331.53L811.72 1317.18H814.852V1322.21H812.998L807.256 1331.3V1331.47H820.2V1335.16H802.611ZM813.083 1339V1334.06L813.169 1332.45V1317.18H817.494V1339H813.083Z" fill="black"/>
<circle cx="804" cy="1402" r="34" fill="#E1B0DC"/>
<path d="M798.254 1391.18V1413H793.641V1395.56H793.513L788.517 1398.69V1394.6L793.918 1391.18H798.254ZM811.408 1413.3C809.902 1413.3 808.56 1413.02 807.381 1412.47C806.209 1411.91 805.279 1411.15 804.59 1410.18C803.901 1409.2 803.542 1408.09 803.514 1406.83H807.988C808.038 1407.68 808.393 1408.36 809.054 1408.89C809.714 1409.41 810.499 1409.68 811.408 1409.68C812.133 1409.68 812.772 1409.52 813.326 1409.2C813.887 1408.87 814.324 1408.42 814.636 1407.84C814.956 1407.26 815.116 1406.59 815.116 1405.84C815.116 1405.07 814.952 1404.4 814.625 1403.82C814.306 1403.23 813.862 1402.78 813.294 1402.45C812.726 1402.13 812.076 1401.96 811.344 1401.95C810.705 1401.95 810.084 1402.08 809.48 1402.35C808.883 1402.61 808.418 1402.97 808.084 1403.42L803.983 1402.69L805.016 1391.18H818.354V1394.95H808.819L808.255 1400.42H808.383C808.766 1399.88 809.345 1399.43 810.119 1399.08C810.893 1398.72 811.76 1398.54 812.718 1398.54C814.032 1398.54 815.204 1398.85 816.234 1399.47C817.264 1400.09 818.077 1400.94 818.674 1402.02C819.27 1403.09 819.565 1404.32 819.558 1405.72C819.565 1407.19 819.224 1408.5 818.535 1409.64C817.853 1410.78 816.898 1411.68 815.669 1412.33C814.448 1412.98 813.027 1413.3 811.408 1413.3Z" fill="black"/>
<circle cx="804" cy="1476" r="34" fill="#E1B0DC"/>
<path d="M798.019 1465.18V1487H793.407V1469.56H793.279L788.282 1472.69V1468.6L793.684 1465.18H798.019ZM811.579 1487.3C810.456 1487.29 809.373 1487.1 808.329 1486.73C807.292 1486.36 806.362 1485.76 805.538 1484.93C804.714 1484.1 804.061 1483 803.578 1481.63C803.102 1480.26 802.864 1478.58 802.864 1476.58C802.871 1474.75 803.081 1473.11 803.493 1471.67C803.912 1470.22 804.508 1468.99 805.282 1467.98C806.064 1466.98 806.998 1466.21 808.084 1465.68C809.171 1465.15 810.389 1464.88 811.738 1464.88C813.194 1464.88 814.48 1465.17 815.595 1465.74C816.71 1466.3 817.605 1467.06 818.28 1468.03C818.961 1468.99 819.373 1470.08 819.515 1471.28H814.966C814.789 1470.52 814.416 1469.92 813.848 1469.49C813.28 1469.05 812.576 1468.84 811.738 1468.84C810.318 1468.84 809.238 1469.45 808.5 1470.69C807.768 1471.93 807.395 1473.61 807.381 1475.73H807.53C807.857 1475.08 808.297 1474.53 808.851 1474.08C809.412 1473.62 810.048 1473.26 810.758 1473.02C811.476 1472.77 812.232 1472.65 813.027 1472.65C814.32 1472.65 815.471 1472.96 816.479 1473.57C817.488 1474.17 818.283 1475 818.866 1476.06C819.448 1477.12 819.739 1478.33 819.739 1479.69C819.739 1481.17 819.395 1482.48 818.706 1483.63C818.024 1484.78 817.069 1485.69 815.84 1486.34C814.618 1486.99 813.198 1487.31 811.579 1487.3ZM811.557 1483.68C812.267 1483.68 812.903 1483.51 813.464 1483.16C814.025 1482.82 814.466 1482.36 814.785 1481.78C815.105 1481.2 815.265 1480.54 815.265 1479.82C815.265 1479.1 815.105 1478.45 814.785 1477.87C814.473 1477.29 814.04 1476.84 813.486 1476.5C812.932 1476.15 812.299 1475.98 811.589 1475.98C811.057 1475.98 810.563 1476.08 810.108 1476.28C809.661 1476.48 809.267 1476.76 808.926 1477.11C808.592 1477.47 808.329 1477.88 808.138 1478.35C807.946 1478.81 807.85 1479.3 807.85 1479.83C807.85 1480.53 808.01 1481.18 808.329 1481.76C808.656 1482.34 809.096 1482.81 809.65 1483.15C810.211 1483.5 810.847 1483.68 811.557 1483.68Z" fill="black"/>
<circle cx="804" cy="1550" r="34" fill="#E1B0DC"/>
<path d="M799.001 1539.18V1561H794.388V1543.56H794.26L789.264 1546.69V1542.6L794.665 1539.18H799.001ZM805.049 1561L814.094 1543.1V1542.95H803.558V1539.18H818.867V1543.01L809.811 1561H805.049Z" fill="black"/>
<circle cx="804" cy="1624" r="34" fill="#E1B0DC"/>
<path d="M798.005 1613.18V1635H793.392V1617.56H793.264L788.268 1620.69V1616.6L793.669 1613.18H798.005ZM811.33 1635.3C809.689 1635.3 808.229 1635.03 806.951 1634.5C805.68 1633.96 804.682 1633.22 803.957 1632.29C803.233 1631.36 802.871 1630.31 802.871 1629.13C802.871 1628.22 803.077 1627.39 803.489 1626.63C803.908 1625.86 804.476 1625.22 805.193 1624.72C805.911 1624.21 806.713 1623.88 807.601 1623.74V1623.59C806.436 1623.36 805.491 1622.79 804.767 1621.9C804.043 1620.99 803.68 1619.95 803.68 1618.75C803.68 1617.62 804.011 1616.62 804.671 1615.74C805.332 1614.85 806.237 1614.15 807.388 1613.65C808.545 1613.14 809.859 1612.88 811.33 1612.88C812.8 1612.88 814.11 1613.14 815.261 1613.65C816.418 1614.16 817.327 1614.86 817.988 1615.75C818.648 1616.63 818.982 1617.63 818.989 1618.75C818.982 1619.95 818.613 1621 817.881 1621.9C817.15 1622.79 816.212 1623.36 815.069 1623.59V1623.74C815.942 1623.88 816.734 1624.21 817.445 1624.72C818.162 1625.22 818.73 1625.86 819.149 1626.63C819.575 1627.39 819.792 1628.22 819.799 1629.13C819.792 1630.31 819.426 1631.36 818.702 1632.29C817.977 1633.22 816.976 1633.96 815.697 1634.5C814.426 1635.03 812.97 1635.3 811.33 1635.3ZM811.33 1631.91C812.061 1631.91 812.7 1631.78 813.247 1631.52C813.794 1631.25 814.22 1630.88 814.526 1630.41C814.838 1629.93 814.994 1629.39 814.994 1628.77C814.994 1628.14 814.835 1627.58 814.515 1627.1C814.195 1626.61 813.762 1626.22 813.215 1625.94C812.668 1625.66 812.04 1625.52 811.33 1625.52C810.626 1625.52 809.998 1625.66 809.444 1625.94C808.89 1626.22 808.453 1626.61 808.134 1627.1C807.821 1627.58 807.665 1628.14 807.665 1628.77C807.665 1629.39 807.817 1629.93 808.123 1630.41C808.428 1630.88 808.858 1631.25 809.412 1631.52C809.966 1631.78 810.605 1631.91 811.33 1631.91ZM811.33 1622.16C811.94 1622.16 812.484 1622.04 812.96 1621.79C813.435 1621.54 813.808 1621.2 814.078 1620.76C814.348 1620.32 814.483 1619.81 814.483 1619.23C814.483 1618.66 814.348 1618.17 814.078 1617.74C813.808 1617.31 813.439 1616.97 812.97 1616.73C812.501 1616.48 811.955 1616.36 811.33 1616.36C810.712 1616.36 810.165 1616.48 809.689 1616.73C809.213 1616.97 808.84 1617.31 808.57 1617.74C808.308 1618.17 808.176 1618.66 808.176 1619.23C808.176 1619.81 808.311 1620.32 808.581 1620.76C808.851 1621.2 809.224 1621.54 809.7 1621.79C810.175 1622.04 810.719 1622.16 811.33 1622.16Z" fill="black"/>
<circle cx="804" cy="1698" r="34" fill="#E1B0DC"/>
<path d="M798.019 1687.18V1709H793.407V1691.56H793.279L788.282 1694.69V1690.6L793.684 1687.18H798.019ZM811.099 1686.88C812.221 1686.88 813.301 1687.07 814.338 1687.45C815.382 1687.82 816.312 1688.42 817.129 1689.25C817.953 1690.07 818.603 1691.17 819.079 1692.53C819.562 1693.89 819.807 1695.55 819.814 1697.53C819.814 1699.38 819.604 1701.03 819.185 1702.49C818.773 1703.94 818.18 1705.17 817.406 1706.19C816.632 1707.2 815.698 1707.98 814.604 1708.51C813.51 1709.04 812.289 1709.3 810.939 1709.3C809.483 1709.3 808.198 1709.02 807.083 1708.46C805.968 1707.89 805.069 1707.12 804.388 1706.14C803.713 1705.16 803.304 1704.06 803.162 1702.84H807.711C807.889 1703.64 808.262 1704.26 808.83 1704.7C809.398 1705.13 810.101 1705.35 810.939 1705.35C812.36 1705.35 813.439 1704.73 814.178 1703.49C814.917 1702.25 815.29 1700.55 815.297 1698.39H815.147C814.821 1699.03 814.38 1699.58 813.826 1700.04C813.272 1700.5 812.637 1700.85 811.919 1701.1C811.209 1701.34 810.453 1701.47 809.65 1701.47C808.365 1701.47 807.218 1701.17 806.209 1700.56C805.201 1699.96 804.405 1699.13 803.823 1698.07C803.241 1697.01 802.949 1695.8 802.949 1694.45C802.942 1692.98 803.28 1691.68 803.961 1690.54C804.643 1689.39 805.595 1688.5 806.816 1687.85C808.045 1687.2 809.473 1686.88 811.099 1686.88ZM811.131 1690.51C810.414 1690.51 809.775 1690.68 809.214 1691.02C808.66 1691.36 808.219 1691.82 807.892 1692.39C807.573 1692.97 807.417 1693.61 807.424 1694.32C807.424 1695.04 807.58 1695.68 807.892 1696.26C808.212 1696.83 808.645 1697.28 809.192 1697.62C809.746 1697.96 810.378 1698.12 811.089 1698.12C811.621 1698.12 812.115 1698.02 812.569 1697.82C813.024 1697.63 813.418 1697.35 813.752 1697C814.093 1696.65 814.359 1696.24 814.551 1695.78C814.743 1695.32 814.839 1694.83 814.839 1694.31C814.831 1693.62 814.668 1692.99 814.348 1692.41C814.029 1691.84 813.589 1691.38 813.027 1691.03C812.466 1690.68 811.834 1690.51 811.131 1690.51Z" fill="black"/>
<circle cx="804" cy="1772" r="34" fill="#E1B0DC"/>
<path d="M785.993 1783V1779.68L793.759 1772.49C794.42 1771.85 794.974 1771.27 795.421 1770.76C795.876 1770.25 796.22 1769.75 796.455 1769.26C796.689 1768.76 796.806 1768.22 796.806 1767.65C796.806 1767.01 796.661 1766.46 796.369 1766C796.078 1765.53 795.681 1765.17 795.176 1764.92C794.672 1764.67 794.1 1764.54 793.461 1764.54C792.794 1764.54 792.211 1764.67 791.714 1764.94C791.217 1765.21 790.833 1765.6 790.563 1766.1C790.294 1766.61 790.159 1767.21 790.159 1767.9H785.78C785.78 1766.48 786.103 1765.24 786.749 1764.19C787.396 1763.13 788.301 1762.32 789.466 1761.75C790.631 1761.17 791.973 1760.88 793.493 1760.88C795.056 1760.88 796.416 1761.16 797.573 1761.71C798.738 1762.26 799.644 1763.02 800.29 1763.99C800.936 1764.97 801.259 1766.08 801.259 1767.34C801.259 1768.16 801.096 1768.98 800.769 1769.78C800.45 1770.58 799.878 1771.47 799.054 1772.45C798.23 1773.43 797.069 1774.59 795.57 1775.96L792.385 1779.08V1779.23H801.547V1783H785.993ZM813.444 1783.48C811.612 1783.47 810.035 1783.02 808.714 1782.13C807.4 1781.23 806.388 1779.94 805.678 1778.24C804.975 1776.54 804.627 1774.5 804.634 1772.11C804.634 1769.73 804.985 1767.71 805.689 1766.03C806.399 1764.35 807.411 1763.08 808.725 1762.2C810.046 1761.32 811.619 1760.88 813.444 1760.88C815.27 1760.88 816.839 1761.32 818.153 1762.2C819.474 1763.09 820.49 1764.36 821.2 1766.04C821.91 1767.71 822.262 1769.73 822.255 1772.11C822.255 1774.51 821.9 1776.55 821.189 1778.25C820.486 1779.95 819.478 1781.24 818.164 1782.14C816.85 1783.03 815.277 1783.48 813.444 1783.48ZM813.444 1779.65C814.694 1779.65 815.692 1779.03 816.438 1777.77C817.184 1776.51 817.553 1774.63 817.546 1772.11C817.546 1770.46 817.375 1769.08 817.034 1767.98C816.701 1766.88 816.225 1766.05 815.607 1765.5C814.996 1764.94 814.275 1764.67 813.444 1764.67C812.201 1764.67 811.207 1765.29 810.461 1766.53C809.716 1767.77 809.339 1769.63 809.332 1772.11C809.332 1773.79 809.499 1775.19 809.833 1776.31C810.174 1777.42 810.653 1778.26 811.271 1778.82C811.889 1779.38 812.613 1779.65 813.444 1779.65Z" fill="black"/>
<path d="M659.5 311.5L647.692 272.849L620.123 302.4L659.5 311.5ZM577.5 235L579.888 232.441L578.879 231.5H577.5V235ZM361.333 235C361.333 245.309 369.691 253.667 380 253.667C390.309 253.667 398.667 245.309 398.667 235C398.667 224.691 390.309 216.333 380 216.333C369.691 216.333 361.333 224.691 361.333 235ZM638.855 287.453L579.888 232.441L575.112 237.559L634.08 292.571L638.855 287.453ZM577.5 231.5H380V238.5H577.5V231.5Z" fill="black"/>
<path d="M804.5 1819.5L769.152 1839.09L803.792 1859.91L804.5 1819.5ZM740.5 1926V1929.5H742.48L743.5 1927.8L740.5 1926ZM459.333 1926C459.333 1936.31 467.691 1944.67 478 1944.67C488.309 1944.67 496.667 1936.31 496.667 1926C496.667 1915.69 488.309 1907.33 478 1907.33C467.691 1907.33 459.333 1915.69 459.333 1926ZM785.275 1844.7L737.5 1924.2L743.5 1927.8L791.275 1848.3L785.275 1844.7ZM740.5 1922.5H478V1929.5H740.5V1922.5Z" fill="black"/>
<path d="M179.41 232.597C176.321 232.597 173.649 231.94 171.395 230.628C169.155 229.302 167.425 227.459 166.205 225.099C164.985 222.726 164.376 219.975 164.376 216.847C164.376 213.691 164.985 210.934 166.205 208.574C167.425 206.201 169.155 204.358 171.395 203.045C173.649 201.72 176.321 201.057 179.41 201.057C182.499 201.057 185.163 201.72 187.404 203.045C189.658 204.358 191.394 206.201 192.614 208.574C193.834 210.934 194.444 213.691 194.444 216.847C194.444 219.975 193.834 222.726 192.614 225.099C191.394 227.459 189.658 229.302 187.404 230.628C185.163 231.94 182.499 232.597 179.41 232.597ZM179.449 226.034C180.855 226.034 182.028 225.636 182.969 224.841C183.911 224.032 184.62 222.932 185.097 221.54C185.588 220.148 185.833 218.563 185.833 216.787C185.833 215.01 185.588 213.426 185.097 212.034C184.62 210.642 183.911 209.542 182.969 208.733C182.028 207.924 180.855 207.52 179.449 207.52C178.031 207.52 176.838 207.924 175.87 208.733C174.915 209.542 174.193 210.642 173.702 212.034C173.225 213.426 172.986 215.01 172.986 216.787C172.986 218.563 173.225 220.148 173.702 221.54C174.193 222.932 174.915 224.032 175.87 224.841C176.838 225.636 178.031 226.034 179.449 226.034ZM217.3 218.994V201.455H225.772V232H217.638V226.452H217.32C216.631 228.241 215.484 229.68 213.88 230.767C212.289 231.854 210.347 232.398 208.053 232.398C206.011 232.398 204.215 231.934 202.664 231.006C201.113 230.078 199.9 228.759 199.025 227.048C198.163 225.338 197.725 223.29 197.712 220.903V201.455H206.184V219.392C206.197 221.195 206.681 222.62 207.636 223.668C208.59 224.715 209.869 225.239 211.474 225.239C212.494 225.239 213.449 225.007 214.337 224.543C215.225 224.065 215.941 223.363 216.485 222.435C217.042 221.507 217.314 220.36 217.3 218.994ZM246.555 201.455V207.818H228.16V201.455H246.555ZM232.337 194.136H240.808V222.614C240.808 223.396 240.927 224.006 241.166 224.443C241.405 224.867 241.736 225.166 242.16 225.338C242.598 225.51 243.102 225.597 243.672 225.597C244.07 225.597 244.467 225.563 244.865 225.497C245.263 225.418 245.568 225.358 245.78 225.318L247.112 231.622C246.688 231.755 246.091 231.907 245.322 232.08C244.553 232.265 243.619 232.378 242.518 232.418C240.477 232.497 238.687 232.225 237.149 231.602C235.624 230.979 234.438 230.011 233.589 228.699C232.741 227.386 232.323 225.729 232.337 223.727V194.136ZM249.834 243.455V201.455H258.186V206.585H258.564C258.935 205.763 259.472 204.928 260.175 204.08C260.891 203.218 261.819 202.502 262.959 201.932C264.112 201.348 265.544 201.057 267.254 201.057C269.482 201.057 271.536 201.64 273.419 202.807C275.302 203.96 276.806 205.704 277.933 208.037C279.06 210.357 279.624 213.267 279.624 216.767C279.624 220.174 279.073 223.051 277.973 225.398C276.886 227.731 275.401 229.501 273.518 230.707C271.649 231.901 269.554 232.497 267.234 232.497C265.59 232.497 264.192 232.225 263.038 231.682C261.898 231.138 260.964 230.455 260.234 229.634C259.505 228.798 258.948 227.956 258.564 227.108H258.305V243.455H249.834ZM258.126 216.727C258.126 218.544 258.378 220.128 258.882 221.48C259.386 222.832 260.115 223.886 261.07 224.642C262.024 225.384 263.184 225.756 264.55 225.756C265.929 225.756 267.095 225.378 268.05 224.622C269.004 223.853 269.727 222.793 270.217 221.44C270.721 220.075 270.973 218.504 270.973 216.727C270.973 214.964 270.728 213.413 270.237 212.074C269.747 210.735 269.024 209.687 268.07 208.932C267.115 208.176 265.942 207.798 264.55 207.798C263.171 207.798 262.004 208.163 261.05 208.892C260.108 209.621 259.386 210.655 258.882 211.994C258.378 213.333 258.126 214.911 258.126 216.727ZM302.619 218.994V201.455H311.091V232H302.957V226.452H302.639C301.95 228.241 300.803 229.68 299.199 230.767C297.608 231.854 295.666 232.398 293.372 232.398C291.331 232.398 289.534 231.934 287.983 231.006C286.432 230.078 285.219 228.759 284.344 227.048C283.482 225.338 283.045 223.29 283.031 220.903V201.455H291.503V219.392C291.516 221.195 292 222.62 292.955 223.668C293.909 224.715 295.189 225.239 296.793 225.239C297.814 225.239 298.768 225.007 299.656 224.543C300.545 224.065 301.26 223.363 301.804 222.435C302.361 221.507 302.633 220.36 302.619 218.994ZM331.874 201.455V207.818H313.48V201.455H331.874ZM317.656 194.136H326.127V222.614C326.127 223.396 326.247 224.006 326.485 224.443C326.724 224.867 327.055 225.166 327.48 225.338C327.917 225.51 328.421 225.597 328.991 225.597C329.389 225.597 329.786 225.563 330.184 225.497C330.582 225.418 330.887 225.358 331.099 225.318L332.431 231.622C332.007 231.755 331.41 231.907 330.641 232.08C329.873 232.265 328.938 232.378 327.837 232.418C325.796 232.497 324.006 232.225 322.468 231.602C320.944 230.979 319.757 230.011 318.908 228.699C318.06 227.386 317.642 225.729 317.656 223.727V194.136ZM211.726 272.438C211.447 271.47 211.056 270.615 210.552 269.872C210.049 269.116 209.432 268.48 208.703 267.963C207.987 267.433 207.165 267.028 206.237 266.75C205.322 266.472 204.308 266.332 203.195 266.332C201.113 266.332 199.284 266.849 197.706 267.884C196.141 268.918 194.922 270.422 194.047 272.398C193.172 274.36 192.734 276.759 192.734 279.597C192.734 282.434 193.165 284.847 194.027 286.835C194.889 288.824 196.108 290.342 197.686 291.389C199.264 292.423 201.126 292.94 203.274 292.94C205.223 292.94 206.887 292.596 208.266 291.906C209.658 291.204 210.718 290.216 211.447 288.943C212.19 287.67 212.561 286.166 212.561 284.429L214.311 284.688H203.811V278.205H220.854V283.335C220.854 286.915 220.098 289.991 218.587 292.562C217.075 295.121 214.994 297.097 212.342 298.489C209.691 299.867 206.655 300.557 203.234 300.557C199.416 300.557 196.062 299.715 193.172 298.031C190.282 296.334 188.028 293.928 186.41 290.812C184.806 287.684 184.004 283.972 184.004 279.676C184.004 276.375 184.481 273.432 185.436 270.847C186.404 268.248 187.756 266.047 189.493 264.244C191.23 262.441 193.251 261.069 195.558 260.128C197.865 259.187 200.364 258.716 203.055 258.716C205.362 258.716 207.51 259.054 209.498 259.73C211.487 260.393 213.25 261.334 214.788 262.554C216.339 263.774 217.606 265.225 218.587 266.909C219.568 268.58 220.197 270.422 220.476 272.438H211.726ZM225.082 300V259.273H241.15C244.239 259.273 246.87 259.863 249.045 261.043C251.219 262.209 252.876 263.833 254.016 265.915C255.17 267.983 255.746 270.369 255.746 273.074C255.746 275.778 255.163 278.165 253.996 280.233C252.83 282.301 251.139 283.912 248.925 285.065C246.725 286.219 244.06 286.795 240.931 286.795H230.69V279.895H239.539C241.196 279.895 242.562 279.61 243.636 279.04C244.723 278.456 245.531 277.654 246.062 276.634C246.605 275.599 246.877 274.413 246.877 273.074C246.877 271.722 246.605 270.542 246.062 269.534C245.531 268.513 244.723 267.724 243.636 267.168C242.548 266.598 241.17 266.312 239.499 266.312H233.692V300H225.082ZM267.71 259.273V300H259.099V259.273H267.71ZM309.981 279.636C309.981 284.078 309.139 287.856 307.455 290.972C305.785 294.087 303.505 296.467 300.614 298.111C297.738 299.741 294.503 300.557 290.91 300.557C287.291 300.557 284.042 299.735 281.166 298.091C278.289 296.447 276.015 294.067 274.345 290.952C272.674 287.836 271.839 284.064 271.839 279.636C271.839 275.195 272.674 271.417 274.345 268.301C276.015 265.186 278.289 262.812 281.166 261.182C284.042 259.538 287.291 258.716 290.91 258.716C294.503 258.716 297.738 259.538 300.614 261.182C303.505 262.812 305.785 265.186 307.455 268.301C309.139 271.417 309.981 275.195 309.981 279.636ZM301.251 279.636C301.251 276.759 300.82 274.333 299.958 272.358C299.11 270.383 297.91 268.884 296.359 267.864C294.808 266.843 292.991 266.332 290.91 266.332C288.828 266.332 287.012 266.843 285.461 267.864C283.91 268.884 282.703 270.383 281.842 272.358C280.993 274.333 280.569 276.759 280.569 279.636C280.569 282.513 280.993 284.939 281.842 286.915C282.703 288.89 283.91 290.388 285.461 291.409C287.012 292.43 288.828 292.94 290.91 292.94C292.991 292.94 294.808 292.43 296.359 291.409C297.91 290.388 299.11 288.89 299.958 286.915C300.82 284.939 301.251 282.513 301.251 279.636Z" fill="black"/>
<path d="M279.914 1910V1879.45H288.386V1910H279.914ZM284.17 1875.52C282.91 1875.52 281.83 1875.1 280.928 1874.26C280.04 1873.42 279.596 1872.4 279.596 1871.22C279.596 1870.05 280.04 1869.05 280.928 1868.22C281.83 1867.37 282.91 1866.95 284.17 1866.95C285.429 1866.95 286.503 1867.37 287.392 1868.22C288.293 1869.05 288.744 1870.05 288.744 1871.22C288.744 1872.4 288.293 1873.42 287.392 1874.26C286.503 1875.1 285.429 1875.52 284.17 1875.52ZM301.404 1892.34V1910H292.932V1879.45H301.006V1884.84H301.364C302.04 1883.07 303.174 1881.66 304.764 1880.63C306.355 1879.58 308.284 1879.06 310.551 1879.06C312.673 1879.06 314.522 1879.52 316.1 1880.45C317.677 1881.38 318.904 1882.7 319.779 1884.43C320.654 1886.14 321.091 1888.18 321.091 1890.55V1910H312.62V1892.06C312.633 1890.19 312.156 1888.73 311.188 1887.69C310.22 1886.63 308.888 1886.1 307.191 1886.1C306.05 1886.1 305.043 1886.34 304.168 1886.83C303.306 1887.32 302.63 1888.04 302.139 1888.98C301.662 1889.91 301.417 1891.03 301.404 1892.34ZM325.528 1921.45V1879.45H333.88V1884.59H334.258C334.629 1883.76 335.166 1882.93 335.869 1882.08C336.585 1881.22 337.513 1880.5 338.653 1879.93C339.806 1879.35 341.238 1879.06 342.948 1879.06C345.176 1879.06 347.231 1879.64 349.113 1880.81C350.996 1881.96 352.501 1883.7 353.627 1886.04C354.754 1888.36 355.318 1891.27 355.318 1894.77C355.318 1898.17 354.768 1901.05 353.667 1903.4C352.58 1905.73 351.095 1907.5 349.213 1908.71C347.343 1909.9 345.249 1910.5 342.929 1910.5C341.285 1910.5 339.886 1910.23 338.733 1909.68C337.592 1909.14 336.658 1908.46 335.929 1907.63C335.199 1906.8 334.643 1905.96 334.258 1905.11H334V1921.45H325.528ZM333.821 1894.73C333.821 1896.54 334.073 1898.13 334.576 1899.48C335.08 1900.83 335.809 1901.89 336.764 1902.64C337.718 1903.38 338.878 1903.76 340.244 1903.76C341.623 1903.76 342.789 1903.38 343.744 1902.62C344.698 1901.85 345.421 1900.79 345.912 1899.44C346.415 1898.07 346.667 1896.5 346.667 1894.73C346.667 1892.96 346.422 1891.41 345.931 1890.07C345.441 1888.73 344.718 1887.69 343.764 1886.93C342.809 1886.18 341.636 1885.8 340.244 1885.8C338.865 1885.8 337.698 1886.16 336.744 1886.89C335.803 1887.62 335.08 1888.66 334.576 1889.99C334.073 1891.33 333.821 1892.91 333.821 1894.73ZM378.314 1896.99V1879.45H386.785V1910H378.652V1904.45H378.333C377.644 1906.24 376.497 1907.68 374.893 1908.77C373.302 1909.85 371.36 1910.4 369.066 1910.4C367.025 1910.4 365.228 1909.93 363.677 1909.01C362.126 1908.08 360.913 1906.76 360.038 1905.05C359.176 1903.34 358.739 1901.29 358.726 1898.9V1879.45H367.197V1897.39C367.21 1899.2 367.694 1900.62 368.649 1901.67C369.603 1902.71 370.883 1903.24 372.487 1903.24C373.508 1903.24 374.462 1903.01 375.351 1902.54C376.239 1902.07 376.955 1901.36 377.498 1900.43C378.055 1899.51 378.327 1898.36 378.314 1896.99ZM407.569 1879.45V1885.82H389.174V1879.45H407.569ZM393.35 1872.14H401.821V1900.61C401.821 1901.4 401.941 1902.01 402.179 1902.44C402.418 1902.87 402.749 1903.17 403.174 1903.34C403.611 1903.51 404.115 1903.6 404.685 1903.6C405.083 1903.6 405.481 1903.56 405.878 1903.5C406.276 1903.42 406.581 1903.36 406.793 1903.32L408.125 1909.62C407.701 1909.75 407.105 1909.91 406.336 1910.08C405.567 1910.27 404.632 1910.38 403.532 1910.42C401.49 1910.5 399.7 1910.23 398.162 1909.6C396.638 1908.98 395.451 1908.01 394.603 1906.7C393.754 1905.39 393.337 1903.73 393.35 1901.73V1872.14ZM306.726 1950.44C306.447 1949.47 306.056 1948.61 305.552 1947.87C305.049 1947.12 304.432 1946.48 303.703 1945.96C302.987 1945.43 302.165 1945.03 301.237 1944.75C300.322 1944.47 299.308 1944.33 298.195 1944.33C296.113 1944.33 294.284 1944.85 292.706 1945.88C291.141 1946.92 289.922 1948.42 289.047 1950.4C288.172 1952.36 287.734 1954.76 287.734 1957.6C287.734 1960.43 288.165 1962.85 289.027 1964.84C289.889 1966.82 291.108 1968.34 292.686 1969.39C294.264 1970.42 296.126 1970.94 298.274 1970.94C300.223 1970.94 301.887 1970.6 303.266 1969.91C304.658 1969.2 305.718 1968.22 306.447 1966.94C307.19 1965.67 307.561 1964.17 307.561 1962.43L309.311 1962.69H298.811V1956.2H315.854V1961.34C315.854 1964.91 315.098 1967.99 313.587 1970.56C312.075 1973.12 309.994 1975.1 307.342 1976.49C304.691 1977.87 301.655 1978.56 298.234 1978.56C294.416 1978.56 291.062 1977.71 288.172 1976.03C285.282 1974.33 283.028 1971.93 281.41 1968.81C279.806 1965.68 279.004 1961.97 279.004 1957.68C279.004 1954.37 279.481 1951.43 280.436 1948.85C281.404 1946.25 282.756 1944.05 284.493 1942.24C286.23 1940.44 288.251 1939.07 290.558 1938.13C292.865 1937.19 295.364 1936.72 298.055 1936.72C300.362 1936.72 302.51 1937.05 304.498 1937.73C306.487 1938.39 308.25 1939.33 309.788 1940.55C311.339 1941.77 312.606 1943.23 313.587 1944.91C314.568 1946.58 315.197 1948.42 315.476 1950.44H306.726ZM320.082 1978V1937.27H336.15C339.239 1937.27 341.87 1937.86 344.045 1939.04C346.219 1940.21 347.876 1941.83 349.016 1943.91C350.17 1945.98 350.746 1948.37 350.746 1951.07C350.746 1953.78 350.163 1956.16 348.996 1958.23C347.83 1960.3 346.139 1961.91 343.925 1963.07C341.725 1964.22 339.06 1964.8 335.931 1964.8H325.69V1957.89H334.539C336.196 1957.89 337.562 1957.61 338.636 1957.04C339.723 1956.46 340.531 1955.65 341.062 1954.63C341.605 1953.6 341.877 1952.41 341.877 1951.07C341.877 1949.72 341.605 1948.54 341.062 1947.53C340.531 1946.51 339.723 1945.72 338.636 1945.17C337.548 1944.6 336.17 1944.31 334.499 1944.31H328.692V1978H320.082ZM362.71 1937.27V1978H354.099V1937.27H362.71ZM404.981 1957.64C404.981 1962.08 404.139 1965.86 402.455 1968.97C400.785 1972.09 398.505 1974.47 395.614 1976.11C392.738 1977.74 389.503 1978.56 385.91 1978.56C382.291 1978.56 379.042 1977.73 376.166 1976.09C373.289 1974.45 371.015 1972.07 369.345 1968.95C367.674 1965.84 366.839 1962.06 366.839 1957.64C366.839 1953.2 367.674 1949.42 369.345 1946.3C371.015 1943.19 373.289 1940.81 376.166 1939.18C379.042 1937.54 382.291 1936.72 385.91 1936.72C389.503 1936.72 392.738 1937.54 395.614 1939.18C398.505 1940.81 400.785 1943.19 402.455 1946.3C404.139 1949.42 404.981 1953.2 404.981 1957.64ZM396.251 1957.64C396.251 1954.76 395.82 1952.33 394.958 1950.36C394.11 1948.38 392.91 1946.88 391.359 1945.86C389.808 1944.84 387.991 1944.33 385.91 1944.33C383.828 1944.33 382.012 1944.84 380.461 1945.86C378.91 1946.88 377.703 1948.38 376.842 1950.36C375.993 1952.33 375.569 1954.76 375.569 1957.64C375.569 1960.51 375.993 1962.94 376.842 1964.91C377.703 1966.89 378.91 1968.39 380.461 1969.41C382.012 1970.43 383.828 1970.94 385.91 1970.94C387.991 1970.94 389.808 1970.43 391.359 1969.41C392.91 1968.39 394.11 1966.89 394.958 1964.91C395.82 1962.94 396.251 1960.51 396.251 1957.64Z" fill="black"/>
</svg>
